<mxfile host="app.diagrams.net" agent="Mozilla/5.0 (Macintosh; Intel Mac OS X 10_15_7) AppleWebKit/537.36 (KHTML, like Gecko) Chrome/128.0.0.0 Safari/537.36" version="24.7.13">
  <diagram name="Page-1" id="sttVDp4EgjfHspVwnQdw">
    <mxGraphModel dx="2280" dy="814" grid="1" gridSize="10" guides="1" tooltips="1" connect="1" arrows="1" fold="1" page="1" pageScale="1" pageWidth="850" pageHeight="1100" math="0" shadow="0">
      <root>
        <mxCell id="0" />
        <mxCell id="1" parent="0" />
        <mxCell id="HA4-nWGH4tqKeBmrAW9M-298" value="" style="rounded=0;whiteSpace=wrap;html=1;fillColor=#2e7956;" vertex="1" parent="1">
          <mxGeometry x="-70" y="140" width="1240" height="260" as="geometry" />
        </mxCell>
        <mxCell id="HA4-nWGH4tqKeBmrAW9M-299" value="" style="rounded=0;whiteSpace=wrap;html=1;fillColor=#e5dc7b;" vertex="1" parent="1">
          <mxGeometry x="60" y="380" width="10" height="20" as="geometry" />
        </mxCell>
        <mxCell id="HA4-nWGH4tqKeBmrAW9M-300" value="" style="rounded=0;whiteSpace=wrap;html=1;fillColor=#e5dc7b;" vertex="1" parent="1">
          <mxGeometry x="70" y="380" width="10" height="20" as="geometry" />
        </mxCell>
        <mxCell id="HA4-nWGH4tqKeBmrAW9M-301" value="" style="rounded=0;whiteSpace=wrap;html=1;fillColor=#e5dc7b;" vertex="1" parent="1">
          <mxGeometry x="80" y="380" width="10" height="20" as="geometry" />
        </mxCell>
        <mxCell id="HA4-nWGH4tqKeBmrAW9M-302" value="" style="rounded=0;whiteSpace=wrap;html=1;fillColor=#e5dc7b;" vertex="1" parent="1">
          <mxGeometry x="90" y="380" width="10" height="20" as="geometry" />
        </mxCell>
        <mxCell id="HA4-nWGH4tqKeBmrAW9M-303" value="" style="rounded=0;whiteSpace=wrap;html=1;fillColor=#e5dc7b;" vertex="1" parent="1">
          <mxGeometry x="100" y="380" width="10" height="20" as="geometry" />
        </mxCell>
        <mxCell id="HA4-nWGH4tqKeBmrAW9M-304" value="" style="rounded=0;whiteSpace=wrap;html=1;fillColor=#e5dc7b;" vertex="1" parent="1">
          <mxGeometry x="110" y="380" width="10" height="20" as="geometry" />
        </mxCell>
        <mxCell id="HA4-nWGH4tqKeBmrAW9M-305" value="" style="rounded=0;whiteSpace=wrap;html=1;fillColor=#e5dc7b;" vertex="1" parent="1">
          <mxGeometry x="120" y="380" width="10" height="20" as="geometry" />
        </mxCell>
        <mxCell id="HA4-nWGH4tqKeBmrAW9M-306" value="" style="rounded=0;whiteSpace=wrap;html=1;fillColor=#e5dc7b;" vertex="1" parent="1">
          <mxGeometry x="130" y="380" width="10" height="20" as="geometry" />
        </mxCell>
        <mxCell id="HA4-nWGH4tqKeBmrAW9M-307" value="" style="rounded=0;whiteSpace=wrap;html=1;fillColor=#e5dc7b;" vertex="1" parent="1">
          <mxGeometry x="140" y="380" width="10" height="20" as="geometry" />
        </mxCell>
        <mxCell id="HA4-nWGH4tqKeBmrAW9M-308" value="" style="rounded=0;whiteSpace=wrap;html=1;fillColor=#e5dc7b;" vertex="1" parent="1">
          <mxGeometry x="150" y="380" width="10" height="20" as="geometry" />
        </mxCell>
        <mxCell id="HA4-nWGH4tqKeBmrAW9M-309" value="" style="rounded=0;whiteSpace=wrap;html=1;fillColor=#e5dc7b;" vertex="1" parent="1">
          <mxGeometry x="160" y="380" width="10" height="20" as="geometry" />
        </mxCell>
        <mxCell id="HA4-nWGH4tqKeBmrAW9M-310" value="" style="rounded=0;whiteSpace=wrap;html=1;fillColor=#e5dc7b;" vertex="1" parent="1">
          <mxGeometry x="170" y="380" width="10" height="20" as="geometry" />
        </mxCell>
        <mxCell id="HA4-nWGH4tqKeBmrAW9M-311" value="" style="rounded=0;whiteSpace=wrap;html=1;fillColor=#e5dc7b;" vertex="1" parent="1">
          <mxGeometry x="180" y="380" width="10" height="20" as="geometry" />
        </mxCell>
        <mxCell id="HA4-nWGH4tqKeBmrAW9M-312" value="" style="rounded=0;whiteSpace=wrap;html=1;fillColor=#e5dc7b;" vertex="1" parent="1">
          <mxGeometry x="190" y="380" width="10" height="20" as="geometry" />
        </mxCell>
        <mxCell id="HA4-nWGH4tqKeBmrAW9M-313" value="" style="rounded=0;whiteSpace=wrap;html=1;fillColor=#e5dc7b;" vertex="1" parent="1">
          <mxGeometry x="200" y="380" width="10" height="20" as="geometry" />
        </mxCell>
        <mxCell id="HA4-nWGH4tqKeBmrAW9M-314" value="" style="rounded=0;whiteSpace=wrap;html=1;fillColor=#e5dc7b;" vertex="1" parent="1">
          <mxGeometry x="210" y="380" width="10" height="20" as="geometry" />
        </mxCell>
        <mxCell id="HA4-nWGH4tqKeBmrAW9M-315" value="" style="rounded=0;whiteSpace=wrap;html=1;fillColor=#e5dc7b;" vertex="1" parent="1">
          <mxGeometry x="220" y="380" width="10" height="20" as="geometry" />
        </mxCell>
        <mxCell id="HA4-nWGH4tqKeBmrAW9M-316" value="" style="rounded=0;whiteSpace=wrap;html=1;fillColor=#e5dc7b;" vertex="1" parent="1">
          <mxGeometry x="230" y="380" width="10" height="20" as="geometry" />
        </mxCell>
        <mxCell id="HA4-nWGH4tqKeBmrAW9M-317" value="" style="rounded=0;whiteSpace=wrap;html=1;fillColor=#e5dc7b;" vertex="1" parent="1">
          <mxGeometry x="240" y="380" width="10" height="20" as="geometry" />
        </mxCell>
        <mxCell id="HA4-nWGH4tqKeBmrAW9M-318" value="" style="rounded=0;whiteSpace=wrap;html=1;fillColor=#e5dc7b;" vertex="1" parent="1">
          <mxGeometry x="250" y="380" width="10" height="20" as="geometry" />
        </mxCell>
        <mxCell id="HA4-nWGH4tqKeBmrAW9M-319" value="" style="rounded=0;whiteSpace=wrap;html=1;fillColor=#e5dc7b;" vertex="1" parent="1">
          <mxGeometry x="260" y="380" width="10" height="20" as="geometry" />
        </mxCell>
        <mxCell id="HA4-nWGH4tqKeBmrAW9M-320" value="" style="rounded=0;whiteSpace=wrap;html=1;fillColor=#e5dc7b;" vertex="1" parent="1">
          <mxGeometry x="270" y="380" width="10" height="20" as="geometry" />
        </mxCell>
        <mxCell id="HA4-nWGH4tqKeBmrAW9M-321" value="" style="rounded=0;whiteSpace=wrap;html=1;fillColor=#e5dc7b;" vertex="1" parent="1">
          <mxGeometry x="280" y="380" width="10" height="20" as="geometry" />
        </mxCell>
        <mxCell id="HA4-nWGH4tqKeBmrAW9M-322" value="" style="rounded=0;whiteSpace=wrap;html=1;fillColor=#e5dc7b;" vertex="1" parent="1">
          <mxGeometry x="290" y="380" width="10" height="20" as="geometry" />
        </mxCell>
        <mxCell id="HA4-nWGH4tqKeBmrAW9M-323" value="" style="rounded=0;whiteSpace=wrap;html=1;fillColor=#e5dc7b;" vertex="1" parent="1">
          <mxGeometry x="300" y="380" width="10" height="20" as="geometry" />
        </mxCell>
        <mxCell id="HA4-nWGH4tqKeBmrAW9M-324" value="" style="rounded=0;whiteSpace=wrap;html=1;fillColor=#e5dc7b;" vertex="1" parent="1">
          <mxGeometry x="310" y="380" width="10" height="20" as="geometry" />
        </mxCell>
        <mxCell id="HA4-nWGH4tqKeBmrAW9M-325" value="" style="rounded=0;whiteSpace=wrap;html=1;fillColor=#e5dc7b;" vertex="1" parent="1">
          <mxGeometry x="320" y="380" width="10" height="20" as="geometry" />
        </mxCell>
        <mxCell id="HA4-nWGH4tqKeBmrAW9M-326" value="" style="rounded=0;whiteSpace=wrap;html=1;fillColor=#e5dc7b;" vertex="1" parent="1">
          <mxGeometry x="330" y="380" width="10" height="20" as="geometry" />
        </mxCell>
        <mxCell id="HA4-nWGH4tqKeBmrAW9M-327" value="" style="rounded=0;whiteSpace=wrap;html=1;fillColor=#e5dc7b;" vertex="1" parent="1">
          <mxGeometry x="340" y="380" width="10" height="20" as="geometry" />
        </mxCell>
        <mxCell id="HA4-nWGH4tqKeBmrAW9M-328" value="" style="rounded=0;whiteSpace=wrap;html=1;fillColor=#e5dc7b;" vertex="1" parent="1">
          <mxGeometry x="350" y="380" width="10" height="20" as="geometry" />
        </mxCell>
        <mxCell id="HA4-nWGH4tqKeBmrAW9M-329" value="" style="rounded=0;whiteSpace=wrap;html=1;fillColor=#e5dc7b;" vertex="1" parent="1">
          <mxGeometry x="360" y="380" width="10" height="20" as="geometry" />
        </mxCell>
        <mxCell id="HA4-nWGH4tqKeBmrAW9M-330" value="" style="rounded=0;whiteSpace=wrap;html=1;fillColor=#e5dc7b;" vertex="1" parent="1">
          <mxGeometry x="370" y="380" width="10" height="20" as="geometry" />
        </mxCell>
        <mxCell id="HA4-nWGH4tqKeBmrAW9M-331" value="" style="rounded=0;whiteSpace=wrap;html=1;fillColor=#e5dc7b;" vertex="1" parent="1">
          <mxGeometry x="380" y="380" width="10" height="20" as="geometry" />
        </mxCell>
        <mxCell id="HA4-nWGH4tqKeBmrAW9M-332" value="" style="rounded=0;whiteSpace=wrap;html=1;fillColor=#e5dc7b;" vertex="1" parent="1">
          <mxGeometry x="390" y="380" width="10" height="20" as="geometry" />
        </mxCell>
        <mxCell id="HA4-nWGH4tqKeBmrAW9M-333" value="" style="rounded=0;whiteSpace=wrap;html=1;fillColor=#e5dc7b;" vertex="1" parent="1">
          <mxGeometry x="400" y="380" width="10" height="20" as="geometry" />
        </mxCell>
        <mxCell id="HA4-nWGH4tqKeBmrAW9M-334" value="" style="rounded=0;whiteSpace=wrap;html=1;fillColor=#e5dc7b;" vertex="1" parent="1">
          <mxGeometry x="410" y="380" width="10" height="20" as="geometry" />
        </mxCell>
        <mxCell id="HA4-nWGH4tqKeBmrAW9M-335" value="" style="rounded=0;whiteSpace=wrap;html=1;fillColor=#e5dc7b;" vertex="1" parent="1">
          <mxGeometry x="420" y="380" width="10" height="20" as="geometry" />
        </mxCell>
        <mxCell id="HA4-nWGH4tqKeBmrAW9M-336" value="" style="rounded=0;whiteSpace=wrap;html=1;fillColor=#e5dc7b;" vertex="1" parent="1">
          <mxGeometry x="430" y="380" width="10" height="20" as="geometry" />
        </mxCell>
        <mxCell id="HA4-nWGH4tqKeBmrAW9M-337" value="" style="rounded=0;whiteSpace=wrap;html=1;fillColor=#e5dc7b;" vertex="1" parent="1">
          <mxGeometry x="660" y="380" width="10" height="20" as="geometry" />
        </mxCell>
        <mxCell id="HA4-nWGH4tqKeBmrAW9M-338" value="" style="rounded=0;whiteSpace=wrap;html=1;fillColor=#e5dc7b;" vertex="1" parent="1">
          <mxGeometry x="676" y="380" width="10" height="20" as="geometry" />
        </mxCell>
        <mxCell id="HA4-nWGH4tqKeBmrAW9M-339" value="" style="rounded=0;whiteSpace=wrap;html=1;fillColor=#e5dc7b;" vertex="1" parent="1">
          <mxGeometry x="686" y="380" width="10" height="20" as="geometry" />
        </mxCell>
        <mxCell id="HA4-nWGH4tqKeBmrAW9M-340" value="" style="rounded=0;whiteSpace=wrap;html=1;fillColor=#e5dc7b;" vertex="1" parent="1">
          <mxGeometry x="696" y="380" width="10" height="20" as="geometry" />
        </mxCell>
        <mxCell id="HA4-nWGH4tqKeBmrAW9M-341" value="" style="rounded=0;whiteSpace=wrap;html=1;fillColor=#e5dc7b;" vertex="1" parent="1">
          <mxGeometry x="706" y="380" width="10" height="20" as="geometry" />
        </mxCell>
        <mxCell id="HA4-nWGH4tqKeBmrAW9M-342" value="" style="rounded=0;whiteSpace=wrap;html=1;fillColor=#e5dc7b;" vertex="1" parent="1">
          <mxGeometry x="716" y="380" width="10" height="20" as="geometry" />
        </mxCell>
        <mxCell id="HA4-nWGH4tqKeBmrAW9M-343" value="" style="rounded=0;whiteSpace=wrap;html=1;fillColor=#e5dc7b;" vertex="1" parent="1">
          <mxGeometry x="726" y="380" width="10" height="20" as="geometry" />
        </mxCell>
        <mxCell id="HA4-nWGH4tqKeBmrAW9M-344" value="" style="rounded=0;whiteSpace=wrap;html=1;fillColor=#e5dc7b;" vertex="1" parent="1">
          <mxGeometry x="736" y="380" width="10" height="20" as="geometry" />
        </mxCell>
        <mxCell id="HA4-nWGH4tqKeBmrAW9M-345" value="" style="rounded=0;whiteSpace=wrap;html=1;fillColor=#e5dc7b;" vertex="1" parent="1">
          <mxGeometry x="746" y="380" width="10" height="20" as="geometry" />
        </mxCell>
        <mxCell id="HA4-nWGH4tqKeBmrAW9M-346" value="" style="rounded=0;whiteSpace=wrap;html=1;fillColor=#e5dc7b;" vertex="1" parent="1">
          <mxGeometry x="756" y="380" width="10" height="20" as="geometry" />
        </mxCell>
        <mxCell id="HA4-nWGH4tqKeBmrAW9M-347" value="" style="rounded=0;whiteSpace=wrap;html=1;fillColor=#e5dc7b;" vertex="1" parent="1">
          <mxGeometry x="766" y="380" width="10" height="20" as="geometry" />
        </mxCell>
        <mxCell id="HA4-nWGH4tqKeBmrAW9M-348" value="" style="rounded=0;whiteSpace=wrap;html=1;fillColor=#e5dc7b;" vertex="1" parent="1">
          <mxGeometry x="776" y="380" width="10" height="20" as="geometry" />
        </mxCell>
        <mxCell id="HA4-nWGH4tqKeBmrAW9M-349" value="" style="rounded=0;whiteSpace=wrap;html=1;fillColor=#e5dc7b;" vertex="1" parent="1">
          <mxGeometry x="786" y="380" width="10" height="20" as="geometry" />
        </mxCell>
        <mxCell id="HA4-nWGH4tqKeBmrAW9M-350" value="" style="rounded=0;whiteSpace=wrap;html=1;fillColor=#e5dc7b;" vertex="1" parent="1">
          <mxGeometry x="796" y="380" width="10" height="20" as="geometry" />
        </mxCell>
        <mxCell id="HA4-nWGH4tqKeBmrAW9M-351" value="" style="rounded=0;whiteSpace=wrap;html=1;fillColor=#e5dc7b;" vertex="1" parent="1">
          <mxGeometry x="806" y="380" width="10" height="20" as="geometry" />
        </mxCell>
        <mxCell id="HA4-nWGH4tqKeBmrAW9M-352" value="" style="rounded=0;whiteSpace=wrap;html=1;fillColor=#e5dc7b;" vertex="1" parent="1">
          <mxGeometry x="816" y="380" width="10" height="20" as="geometry" />
        </mxCell>
        <mxCell id="HA4-nWGH4tqKeBmrAW9M-353" value="" style="rounded=0;whiteSpace=wrap;html=1;fillColor=#e5dc7b;" vertex="1" parent="1">
          <mxGeometry x="826" y="380" width="10" height="20" as="geometry" />
        </mxCell>
        <mxCell id="HA4-nWGH4tqKeBmrAW9M-354" value="" style="rounded=0;whiteSpace=wrap;html=1;fillColor=#e5dc7b;" vertex="1" parent="1">
          <mxGeometry x="836" y="380" width="10" height="20" as="geometry" />
        </mxCell>
        <mxCell id="HA4-nWGH4tqKeBmrAW9M-355" value="" style="rounded=0;whiteSpace=wrap;html=1;fillColor=#e5dc7b;" vertex="1" parent="1">
          <mxGeometry x="846" y="380" width="10" height="20" as="geometry" />
        </mxCell>
        <mxCell id="HA4-nWGH4tqKeBmrAW9M-356" value="" style="rounded=0;whiteSpace=wrap;html=1;fillColor=#e5dc7b;" vertex="1" parent="1">
          <mxGeometry x="856" y="380" width="10" height="20" as="geometry" />
        </mxCell>
        <mxCell id="HA4-nWGH4tqKeBmrAW9M-357" value="" style="rounded=0;whiteSpace=wrap;html=1;fillColor=#e5dc7b;" vertex="1" parent="1">
          <mxGeometry x="866" y="380" width="10" height="20" as="geometry" />
        </mxCell>
        <mxCell id="HA4-nWGH4tqKeBmrAW9M-358" value="" style="rounded=0;whiteSpace=wrap;html=1;fillColor=#e5dc7b;" vertex="1" parent="1">
          <mxGeometry x="876" y="380" width="10" height="20" as="geometry" />
        </mxCell>
        <mxCell id="HA4-nWGH4tqKeBmrAW9M-359" value="" style="rounded=0;whiteSpace=wrap;html=1;fillColor=#e5dc7b;" vertex="1" parent="1">
          <mxGeometry x="886" y="380" width="10" height="20" as="geometry" />
        </mxCell>
        <mxCell id="HA4-nWGH4tqKeBmrAW9M-360" value="" style="rounded=0;whiteSpace=wrap;html=1;fillColor=#e5dc7b;" vertex="1" parent="1">
          <mxGeometry x="896" y="380" width="10" height="20" as="geometry" />
        </mxCell>
        <mxCell id="HA4-nWGH4tqKeBmrAW9M-361" value="" style="rounded=0;whiteSpace=wrap;html=1;fillColor=#e5dc7b;" vertex="1" parent="1">
          <mxGeometry x="906" y="380" width="10" height="20" as="geometry" />
        </mxCell>
        <mxCell id="HA4-nWGH4tqKeBmrAW9M-362" value="" style="rounded=0;whiteSpace=wrap;html=1;fillColor=#e5dc7b;" vertex="1" parent="1">
          <mxGeometry x="916" y="380" width="10" height="20" as="geometry" />
        </mxCell>
        <mxCell id="HA4-nWGH4tqKeBmrAW9M-363" value="" style="rounded=0;whiteSpace=wrap;html=1;fillColor=#e5dc7b;" vertex="1" parent="1">
          <mxGeometry x="926" y="380" width="10" height="20" as="geometry" />
        </mxCell>
        <mxCell id="HA4-nWGH4tqKeBmrAW9M-364" value="" style="rounded=0;whiteSpace=wrap;html=1;fillColor=#e5dc7b;" vertex="1" parent="1">
          <mxGeometry x="936" y="380" width="10" height="20" as="geometry" />
        </mxCell>
        <mxCell id="HA4-nWGH4tqKeBmrAW9M-365" value="" style="rounded=0;whiteSpace=wrap;html=1;fillColor=#e5dc7b;" vertex="1" parent="1">
          <mxGeometry x="946" y="380" width="10" height="20" as="geometry" />
        </mxCell>
        <mxCell id="HA4-nWGH4tqKeBmrAW9M-366" value="" style="rounded=0;whiteSpace=wrap;html=1;fillColor=#e5dc7b;" vertex="1" parent="1">
          <mxGeometry x="956" y="380" width="10" height="20" as="geometry" />
        </mxCell>
        <mxCell id="HA4-nWGH4tqKeBmrAW9M-367" value="" style="rounded=0;whiteSpace=wrap;html=1;fillColor=#e5dc7b;" vertex="1" parent="1">
          <mxGeometry x="966" y="380" width="10" height="20" as="geometry" />
        </mxCell>
        <mxCell id="HA4-nWGH4tqKeBmrAW9M-368" value="" style="rounded=0;whiteSpace=wrap;html=1;fillColor=#e5dc7b;" vertex="1" parent="1">
          <mxGeometry x="976" y="380" width="10" height="20" as="geometry" />
        </mxCell>
        <mxCell id="HA4-nWGH4tqKeBmrAW9M-369" value="" style="rounded=0;whiteSpace=wrap;html=1;fillColor=#e5dc7b;" vertex="1" parent="1">
          <mxGeometry x="986" y="380" width="10" height="20" as="geometry" />
        </mxCell>
        <mxCell id="HA4-nWGH4tqKeBmrAW9M-370" value="" style="rounded=0;whiteSpace=wrap;html=1;fillColor=#e5dc7b;" vertex="1" parent="1">
          <mxGeometry x="996" y="380" width="10" height="20" as="geometry" />
        </mxCell>
        <mxCell id="HA4-nWGH4tqKeBmrAW9M-371" value="" style="rounded=0;whiteSpace=wrap;html=1;fillColor=#e5dc7b;" vertex="1" parent="1">
          <mxGeometry x="1006" y="380" width="10" height="20" as="geometry" />
        </mxCell>
        <mxCell id="HA4-nWGH4tqKeBmrAW9M-372" value="" style="rounded=0;whiteSpace=wrap;html=1;fillColor=#e5dc7b;" vertex="1" parent="1">
          <mxGeometry x="1016" y="380" width="10" height="20" as="geometry" />
        </mxCell>
        <mxCell id="HA4-nWGH4tqKeBmrAW9M-373" value="" style="rounded=0;whiteSpace=wrap;html=1;fillColor=#e5dc7b;" vertex="1" parent="1">
          <mxGeometry x="1026" y="380" width="10" height="20" as="geometry" />
        </mxCell>
        <mxCell id="HA4-nWGH4tqKeBmrAW9M-374" value="" style="rounded=0;whiteSpace=wrap;html=1;fillColor=#e5dc7b;" vertex="1" parent="1">
          <mxGeometry x="1036" y="380" width="10" height="20" as="geometry" />
        </mxCell>
        <mxCell id="HA4-nWGH4tqKeBmrAW9M-375" value="" style="rounded=0;whiteSpace=wrap;html=1;fillColor=#e5dc7b;" vertex="1" parent="1">
          <mxGeometry x="1046" y="380" width="10" height="20" as="geometry" />
        </mxCell>
        <mxCell id="HA4-nWGH4tqKeBmrAW9M-376" value="" style="shape=or;whiteSpace=wrap;html=1;direction=north;" vertex="1" parent="1">
          <mxGeometry x="540" y="370" width="20" height="30" as="geometry" />
        </mxCell>
        <mxCell id="HA4-nWGH4tqKeBmrAW9M-377" value="" style="rounded=0;whiteSpace=wrap;html=1;fillColor=#e5dc7b;" vertex="1" parent="1">
          <mxGeometry x="670" y="380" width="10" height="20" as="geometry" />
        </mxCell>
        <mxCell id="HA4-nWGH4tqKeBmrAW9M-378" value="" style="rounded=0;whiteSpace=wrap;html=1;fillColor=#e5dc7b;" vertex="1" parent="1">
          <mxGeometry x="680" y="380" width="10" height="20" as="geometry" />
        </mxCell>
        <mxCell id="HA4-nWGH4tqKeBmrAW9M-379" value="" style="rounded=0;whiteSpace=wrap;html=1;fillColor=#e5dc7b;" vertex="1" parent="1">
          <mxGeometry x="690" y="380" width="10" height="20" as="geometry" />
        </mxCell>
        <mxCell id="HA4-nWGH4tqKeBmrAW9M-380" value="" style="rounded=0;whiteSpace=wrap;html=1;fillColor=#e5dc7b;" vertex="1" parent="1">
          <mxGeometry x="440" y="380" width="10" height="20" as="geometry" />
        </mxCell>
        <mxCell id="HA4-nWGH4tqKeBmrAW9M-381" style="edgeStyle=orthogonalEdgeStyle;rounded=0;orthogonalLoop=1;jettySize=auto;html=1;exitX=0.25;exitY=1;exitDx=0;exitDy=0;entryX=1;entryY=0.5;entryDx=0;entryDy=0;strokeWidth=2;strokeColor=#6c8ebf;endArrow=none;endFill=0;fillColor=#dae8fc;" edge="1" parent="1">
          <mxGeometry relative="1" as="geometry">
            <mxPoint x="447" y="198.25" as="sourcePoint" />
            <mxPoint x="7" y="183.75" as="targetPoint" />
            <Array as="points">
              <mxPoint x="407" y="198.75" />
              <mxPoint x="407" y="183.75" />
            </Array>
          </mxGeometry>
        </mxCell>
        <mxCell id="HA4-nWGH4tqKeBmrAW9M-382" style="edgeStyle=orthogonalEdgeStyle;rounded=0;orthogonalLoop=1;jettySize=auto;html=1;exitX=0.75;exitY=1;exitDx=0;exitDy=0;strokeWidth=2;strokeColor=#6c8ebf;endArrow=none;endFill=0;fillColor=#dae8fc;" edge="1" parent="1">
          <mxGeometry relative="1" as="geometry">
            <mxPoint x="450" y="307.5" as="sourcePoint" />
            <mxPoint x="10" y="320" as="targetPoint" />
            <Array as="points">
              <mxPoint x="410" y="307" />
              <mxPoint x="410" y="320" />
            </Array>
          </mxGeometry>
        </mxCell>
        <mxCell id="HA4-nWGH4tqKeBmrAW9M-383" style="edgeStyle=orthogonalEdgeStyle;rounded=0;orthogonalLoop=1;jettySize=auto;html=1;exitX=0.25;exitY=0;exitDx=0;exitDy=0;strokeWidth=2;strokeColor=#82b366;endArrow=none;endFill=0;fillColor=#d5e8d4;" edge="1" parent="1">
          <mxGeometry relative="1" as="geometry">
            <mxPoint x="650" y="201.5" as="sourcePoint" />
            <mxPoint x="1091" y="187" as="targetPoint" />
            <Array as="points">
              <mxPoint x="690" y="202" />
              <mxPoint x="690" y="187" />
            </Array>
          </mxGeometry>
        </mxCell>
        <mxCell id="HA4-nWGH4tqKeBmrAW9M-384" value="&lt;font style=&quot;font-size: 14px;&quot; color=&quot;#ababab&quot;&gt;&lt;b&gt;RCD&lt;/b&gt;&lt;/font&gt;" style="rounded=0;whiteSpace=wrap;html=1;strokeColor=#454744;fillColor=#464646;direction=south;" vertex="1" parent="1">
          <mxGeometry x="450" y="190" width="200" height="130" as="geometry" />
        </mxCell>
        <mxCell id="HA4-nWGH4tqKeBmrAW9M-385" value="" style="endArrow=classic;html=1;rounded=0;strokeWidth=4;fillColor=#ffe6cc;strokeColor=#d79b00;" edge="1" parent="1">
          <mxGeometry width="50" height="50" relative="1" as="geometry">
            <mxPoint x="484.66" y="450" as="sourcePoint" />
            <mxPoint x="484.66" y="320" as="targetPoint" />
          </mxGeometry>
        </mxCell>
        <mxCell id="HA4-nWGH4tqKeBmrAW9M-386" value="" style="endArrow=classic;html=1;rounded=0;strokeWidth=4;fillColor=#dae8fc;strokeColor=#6c8ebf;" edge="1" parent="1">
          <mxGeometry width="50" height="50" relative="1" as="geometry">
            <mxPoint x="581" y="450" as="sourcePoint" />
            <mxPoint x="581" y="320" as="targetPoint" />
          </mxGeometry>
        </mxCell>
        <mxCell id="HA4-nWGH4tqKeBmrAW9M-387" value="DCK" style="text;html=1;align=center;verticalAlign=middle;whiteSpace=wrap;rounded=0;fontColor=#d79b00;fontStyle=1;fontSize=14;" vertex="1" parent="1">
          <mxGeometry x="470" y="450" width="35" height="20" as="geometry" />
        </mxCell>
        <mxCell id="HA4-nWGH4tqKeBmrAW9M-388" value="" style="endArrow=classic;html=1;rounded=0;exitX=1;exitY=1;exitDx=0;exitDy=0;strokeWidth=4;fillColor=#f8cecc;strokeColor=#b85450;" edge="1" parent="1">
          <mxGeometry width="50" height="50" relative="1" as="geometry">
            <mxPoint x="606" y="480" as="sourcePoint" />
            <mxPoint x="606" y="320" as="targetPoint" />
          </mxGeometry>
        </mxCell>
        <mxCell id="HA4-nWGH4tqKeBmrAW9M-389" value="" style="endArrow=classic;html=1;rounded=0;strokeWidth=4;fillColor=#d5e8d4;strokeColor=#82b366;" edge="1" parent="1">
          <mxGeometry width="50" height="50" relative="1" as="geometry">
            <mxPoint x="630" y="510" as="sourcePoint" />
            <mxPoint x="630.31" y="320" as="targetPoint" />
          </mxGeometry>
        </mxCell>
        <mxCell id="HA4-nWGH4tqKeBmrAW9M-390" value="" style="endArrow=classic;html=1;rounded=0;strokeWidth=4;fillColor=#e1d5e7;strokeColor=#9673a6;" edge="1" parent="1">
          <mxGeometry width="50" height="50" relative="1" as="geometry">
            <mxPoint x="650" y="550" as="sourcePoint" />
            <mxPoint x="650.31" y="320" as="targetPoint" />
          </mxGeometry>
        </mxCell>
        <mxCell id="HA4-nWGH4tqKeBmrAW9M-391" value="&lt;div&gt;&lt;span style=&quot;background-color: initial;&quot;&gt;DCS1_B_n&lt;/span&gt;&lt;br&gt;&lt;/div&gt;" style="text;html=1;align=center;verticalAlign=middle;whiteSpace=wrap;rounded=0;fontColor=#9673a6;fontStyle=1;fontSize=14;" vertex="1" parent="1">
          <mxGeometry x="603" y="550" width="90" height="20" as="geometry" />
        </mxCell>
        <mxCell id="HA4-nWGH4tqKeBmrAW9M-392" value="RCD and RDIMM shown enlarged for ease of explaining" style="text;html=1;align=center;verticalAlign=middle;whiteSpace=wrap;rounded=0;" vertex="1" parent="1">
          <mxGeometry x="850" y="110" width="320" height="30" as="geometry" />
        </mxCell>
        <mxCell id="HA4-nWGH4tqKeBmrAW9M-393" value="" style="rounded=0;whiteSpace=wrap;html=1;fillColor=#e5dc7b;" vertex="1" parent="1">
          <mxGeometry x="-60" y="380" width="10" height="20" as="geometry" />
        </mxCell>
        <mxCell id="HA4-nWGH4tqKeBmrAW9M-394" value="" style="rounded=0;whiteSpace=wrap;html=1;fillColor=#e5dc7b;" vertex="1" parent="1">
          <mxGeometry x="-50" y="380" width="10" height="20" as="geometry" />
        </mxCell>
        <mxCell id="HA4-nWGH4tqKeBmrAW9M-395" value="" style="rounded=0;whiteSpace=wrap;html=1;fillColor=#e5dc7b;" vertex="1" parent="1">
          <mxGeometry x="-40" y="380" width="10" height="20" as="geometry" />
        </mxCell>
        <mxCell id="HA4-nWGH4tqKeBmrAW9M-396" value="" style="rounded=0;whiteSpace=wrap;html=1;fillColor=#e5dc7b;" vertex="1" parent="1">
          <mxGeometry x="-30" y="380" width="10" height="20" as="geometry" />
        </mxCell>
        <mxCell id="HA4-nWGH4tqKeBmrAW9M-397" value="" style="rounded=0;whiteSpace=wrap;html=1;fillColor=#e5dc7b;" vertex="1" parent="1">
          <mxGeometry x="-20" y="380" width="10" height="20" as="geometry" />
        </mxCell>
        <mxCell id="HA4-nWGH4tqKeBmrAW9M-398" value="" style="rounded=0;whiteSpace=wrap;html=1;fillColor=#e5dc7b;" vertex="1" parent="1">
          <mxGeometry x="-10" y="380" width="10" height="20" as="geometry" />
        </mxCell>
        <mxCell id="HA4-nWGH4tqKeBmrAW9M-399" value="" style="rounded=0;whiteSpace=wrap;html=1;fillColor=#e5dc7b;" vertex="1" parent="1">
          <mxGeometry y="380" width="10" height="20" as="geometry" />
        </mxCell>
        <mxCell id="HA4-nWGH4tqKeBmrAW9M-400" value="" style="rounded=0;whiteSpace=wrap;html=1;fillColor=#e5dc7b;" vertex="1" parent="1">
          <mxGeometry x="10" y="380" width="10" height="20" as="geometry" />
        </mxCell>
        <mxCell id="HA4-nWGH4tqKeBmrAW9M-401" value="" style="rounded=0;whiteSpace=wrap;html=1;fillColor=#e5dc7b;" vertex="1" parent="1">
          <mxGeometry x="20" y="380" width="10" height="20" as="geometry" />
        </mxCell>
        <mxCell id="HA4-nWGH4tqKeBmrAW9M-402" value="" style="rounded=0;whiteSpace=wrap;html=1;fillColor=#e5dc7b;" vertex="1" parent="1">
          <mxGeometry x="30" y="380" width="10" height="20" as="geometry" />
        </mxCell>
        <mxCell id="HA4-nWGH4tqKeBmrAW9M-403" value="" style="rounded=0;whiteSpace=wrap;html=1;fillColor=#e5dc7b;" vertex="1" parent="1">
          <mxGeometry x="40" y="380" width="10" height="20" as="geometry" />
        </mxCell>
        <mxCell id="HA4-nWGH4tqKeBmrAW9M-404" value="" style="rounded=0;whiteSpace=wrap;html=1;fillColor=#e5dc7b;" vertex="1" parent="1">
          <mxGeometry x="50" y="380" width="10" height="20" as="geometry" />
        </mxCell>
        <mxCell id="HA4-nWGH4tqKeBmrAW9M-405" value="" style="rounded=0;whiteSpace=wrap;html=1;fillColor=#e5dc7b;" vertex="1" parent="1">
          <mxGeometry x="1056" y="380" width="10" height="20" as="geometry" />
        </mxCell>
        <mxCell id="HA4-nWGH4tqKeBmrAW9M-406" value="" style="rounded=0;whiteSpace=wrap;html=1;fillColor=#e5dc7b;" vertex="1" parent="1">
          <mxGeometry x="1066" y="380" width="10" height="20" as="geometry" />
        </mxCell>
        <mxCell id="HA4-nWGH4tqKeBmrAW9M-407" value="" style="rounded=0;whiteSpace=wrap;html=1;fillColor=#e5dc7b;" vertex="1" parent="1">
          <mxGeometry x="1076" y="380" width="10" height="20" as="geometry" />
        </mxCell>
        <mxCell id="HA4-nWGH4tqKeBmrAW9M-408" value="" style="rounded=0;whiteSpace=wrap;html=1;fillColor=#e5dc7b;" vertex="1" parent="1">
          <mxGeometry x="1086" y="380" width="10" height="20" as="geometry" />
        </mxCell>
        <mxCell id="HA4-nWGH4tqKeBmrAW9M-409" value="" style="rounded=0;whiteSpace=wrap;html=1;fillColor=#e5dc7b;" vertex="1" parent="1">
          <mxGeometry x="1096" y="380" width="10" height="20" as="geometry" />
        </mxCell>
        <mxCell id="HA4-nWGH4tqKeBmrAW9M-410" value="" style="rounded=0;whiteSpace=wrap;html=1;fillColor=#e5dc7b;" vertex="1" parent="1">
          <mxGeometry x="1106" y="380" width="10" height="20" as="geometry" />
        </mxCell>
        <mxCell id="HA4-nWGH4tqKeBmrAW9M-411" value="" style="rounded=0;whiteSpace=wrap;html=1;fillColor=#e5dc7b;" vertex="1" parent="1">
          <mxGeometry x="1116" y="380" width="10" height="20" as="geometry" />
        </mxCell>
        <mxCell id="HA4-nWGH4tqKeBmrAW9M-412" value="" style="rounded=0;whiteSpace=wrap;html=1;fillColor=#e5dc7b;" vertex="1" parent="1">
          <mxGeometry x="1126" y="380" width="10" height="20" as="geometry" />
        </mxCell>
        <mxCell id="HA4-nWGH4tqKeBmrAW9M-413" value="" style="rounded=0;whiteSpace=wrap;html=1;fillColor=#e5dc7b;" vertex="1" parent="1">
          <mxGeometry x="1136" y="380" width="10" height="20" as="geometry" />
        </mxCell>
        <mxCell id="HA4-nWGH4tqKeBmrAW9M-414" value="" style="rounded=0;whiteSpace=wrap;html=1;fillColor=#e5dc7b;" vertex="1" parent="1">
          <mxGeometry x="1146" y="380" width="10" height="20" as="geometry" />
        </mxCell>
        <mxCell id="HA4-nWGH4tqKeBmrAW9M-415" value="&lt;span style=&quot;font-family: Helvetica; font-size: 14px; font-style: normal; font-variant-ligatures: normal; font-variant-caps: normal; font-weight: 700; letter-spacing: normal; orphans: 2; text-align: center; text-indent: 0px; text-transform: none; widows: 2; word-spacing: 0px; -webkit-text-stroke-width: 0px; white-space: normal; background-color: rgb(251, 251, 251); text-decoration-thickness: initial; text-decoration-style: initial; text-decoration-color: initial; float: none; display: inline !important;&quot;&gt;DCS0_A_n&lt;/span&gt;" style="text;whiteSpace=wrap;html=1;fontColor=#6c8ebf;" vertex="1" parent="1">
          <mxGeometry x="528" y="450" width="80" height="30" as="geometry" />
        </mxCell>
        <mxCell id="HA4-nWGH4tqKeBmrAW9M-416" value="&lt;span style=&quot;color: rgb(184, 84, 80); font-family: Helvetica; font-size: 14px; font-style: normal; font-variant-ligatures: normal; font-variant-caps: normal; font-weight: 700; letter-spacing: normal; orphans: 2; text-align: center; text-indent: 0px; text-transform: none; widows: 2; word-spacing: 0px; -webkit-text-stroke-width: 0px; white-space: normal; background-color: rgb(251, 251, 251); text-decoration-thickness: initial; text-decoration-style: initial; text-decoration-color: initial; display: inline !important; float: none;&quot;&gt;DCS1_A_n&lt;/span&gt;" style="text;whiteSpace=wrap;html=1;" vertex="1" parent="1">
          <mxGeometry x="551" y="480" width="80" height="20" as="geometry" />
        </mxCell>
        <mxCell id="HA4-nWGH4tqKeBmrAW9M-417" value="&lt;span style=&quot;font-family: Helvetica; font-size: 14px; font-style: normal; font-variant-ligatures: normal; font-variant-caps: normal; font-weight: 700; letter-spacing: normal; orphans: 2; text-align: center; text-indent: 0px; text-transform: none; widows: 2; word-spacing: 0px; -webkit-text-stroke-width: 0px; white-space: normal; background-color: rgb(251, 251, 251); text-decoration-thickness: initial; text-decoration-style: initial; text-decoration-color: initial; float: none; display: inline !important;&quot;&gt;DCS0_B_n&lt;/span&gt;" style="text;whiteSpace=wrap;html=1;fontColor=#82b366;" vertex="1" parent="1">
          <mxGeometry x="574" y="510" width="80" height="30" as="geometry" />
        </mxCell>
        <mxCell id="HA4-nWGH4tqKeBmrAW9M-418" style="edgeStyle=orthogonalEdgeStyle;rounded=0;orthogonalLoop=1;jettySize=auto;html=1;exitX=0.25;exitY=0;exitDx=0;exitDy=0;strokeWidth=2;strokeColor=#82b366;endArrow=none;endFill=0;entryX=0;entryY=0.5;entryDx=0;entryDy=0;fillColor=#d5e8d4;" edge="1" parent="1">
          <mxGeometry relative="1" as="geometry">
            <mxPoint x="650" y="310" as="sourcePoint" />
            <mxPoint x="1091" y="323" as="targetPoint" />
            <Array as="points">
              <mxPoint x="690" y="310" />
              <mxPoint x="690" y="323" />
            </Array>
          </mxGeometry>
        </mxCell>
        <mxCell id="HA4-nWGH4tqKeBmrAW9M-419" value="QACS0_A" style="text;html=1;align=center;verticalAlign=middle;whiteSpace=wrap;rounded=0;fontColor=#6c8ebf;" vertex="1" parent="1">
          <mxGeometry x="345" y="316" width="60" height="30" as="geometry" />
        </mxCell>
        <mxCell id="HA4-nWGH4tqKeBmrAW9M-420" value="QBCS0_A" style="text;html=1;align=center;verticalAlign=middle;whiteSpace=wrap;rounded=0;fontColor=#6c8ebf;" vertex="1" parent="1">
          <mxGeometry x="340" y="158" width="60" height="30" as="geometry" />
        </mxCell>
        <mxCell id="HA4-nWGH4tqKeBmrAW9M-421" value="QACS0_B" style="text;html=1;align=center;verticalAlign=middle;whiteSpace=wrap;rounded=0;fontColor=#82b366;" vertex="1" parent="1">
          <mxGeometry x="701" y="319" width="60" height="30" as="geometry" />
        </mxCell>
        <mxCell id="HA4-nWGH4tqKeBmrAW9M-422" value="QBCS0_B" style="text;html=1;align=center;verticalAlign=middle;whiteSpace=wrap;rounded=0;fontColor=#82b366;" vertex="1" parent="1">
          <mxGeometry x="698" y="161" width="60" height="30" as="geometry" />
        </mxCell>
        <mxCell id="HA4-nWGH4tqKeBmrAW9M-423" value="" style="rounded=0;whiteSpace=wrap;html=1;fillColor=#2e7956;" vertex="1" parent="1">
          <mxGeometry x="-70" y="630" width="1240" height="260" as="geometry" />
        </mxCell>
        <mxCell id="HA4-nWGH4tqKeBmrAW9M-424" value="" style="rounded=0;whiteSpace=wrap;html=1;fillColor=#e5dc7b;" vertex="1" parent="1">
          <mxGeometry x="62" y="630" width="10" height="20" as="geometry" />
        </mxCell>
        <mxCell id="HA4-nWGH4tqKeBmrAW9M-425" value="" style="rounded=0;whiteSpace=wrap;html=1;fillColor=#e5dc7b;" vertex="1" parent="1">
          <mxGeometry x="72" y="630" width="10" height="20" as="geometry" />
        </mxCell>
        <mxCell id="HA4-nWGH4tqKeBmrAW9M-426" value="" style="rounded=0;whiteSpace=wrap;html=1;fillColor=#e5dc7b;" vertex="1" parent="1">
          <mxGeometry x="82" y="630" width="10" height="20" as="geometry" />
        </mxCell>
        <mxCell id="HA4-nWGH4tqKeBmrAW9M-427" value="" style="rounded=0;whiteSpace=wrap;html=1;fillColor=#e5dc7b;" vertex="1" parent="1">
          <mxGeometry x="92" y="630" width="10" height="20" as="geometry" />
        </mxCell>
        <mxCell id="HA4-nWGH4tqKeBmrAW9M-428" value="" style="rounded=0;whiteSpace=wrap;html=1;fillColor=#e5dc7b;" vertex="1" parent="1">
          <mxGeometry x="102" y="630" width="10" height="20" as="geometry" />
        </mxCell>
        <mxCell id="HA4-nWGH4tqKeBmrAW9M-429" value="" style="rounded=0;whiteSpace=wrap;html=1;fillColor=#e5dc7b;" vertex="1" parent="1">
          <mxGeometry x="112" y="630" width="10" height="20" as="geometry" />
        </mxCell>
        <mxCell id="HA4-nWGH4tqKeBmrAW9M-430" value="" style="rounded=0;whiteSpace=wrap;html=1;fillColor=#e5dc7b;" vertex="1" parent="1">
          <mxGeometry x="122" y="630" width="10" height="20" as="geometry" />
        </mxCell>
        <mxCell id="HA4-nWGH4tqKeBmrAW9M-431" value="" style="rounded=0;whiteSpace=wrap;html=1;fillColor=#e5dc7b;" vertex="1" parent="1">
          <mxGeometry x="132" y="630" width="10" height="20" as="geometry" />
        </mxCell>
        <mxCell id="HA4-nWGH4tqKeBmrAW9M-432" value="" style="rounded=0;whiteSpace=wrap;html=1;fillColor=#e5dc7b;" vertex="1" parent="1">
          <mxGeometry x="142" y="630" width="10" height="20" as="geometry" />
        </mxCell>
        <mxCell id="HA4-nWGH4tqKeBmrAW9M-433" value="" style="rounded=0;whiteSpace=wrap;html=1;fillColor=#e5dc7b;" vertex="1" parent="1">
          <mxGeometry x="152" y="630" width="10" height="20" as="geometry" />
        </mxCell>
        <mxCell id="HA4-nWGH4tqKeBmrAW9M-434" value="" style="rounded=0;whiteSpace=wrap;html=1;fillColor=#e5dc7b;" vertex="1" parent="1">
          <mxGeometry x="162" y="630" width="10" height="20" as="geometry" />
        </mxCell>
        <mxCell id="HA4-nWGH4tqKeBmrAW9M-435" value="" style="rounded=0;whiteSpace=wrap;html=1;fillColor=#e5dc7b;" vertex="1" parent="1">
          <mxGeometry x="172" y="630" width="10" height="20" as="geometry" />
        </mxCell>
        <mxCell id="HA4-nWGH4tqKeBmrAW9M-436" value="" style="rounded=0;whiteSpace=wrap;html=1;fillColor=#e5dc7b;" vertex="1" parent="1">
          <mxGeometry x="182" y="630" width="10" height="20" as="geometry" />
        </mxCell>
        <mxCell id="HA4-nWGH4tqKeBmrAW9M-437" value="" style="rounded=0;whiteSpace=wrap;html=1;fillColor=#e5dc7b;" vertex="1" parent="1">
          <mxGeometry x="192" y="630" width="10" height="20" as="geometry" />
        </mxCell>
        <mxCell id="HA4-nWGH4tqKeBmrAW9M-438" value="" style="rounded=0;whiteSpace=wrap;html=1;fillColor=#e5dc7b;" vertex="1" parent="1">
          <mxGeometry x="202" y="630" width="10" height="20" as="geometry" />
        </mxCell>
        <mxCell id="HA4-nWGH4tqKeBmrAW9M-439" value="" style="rounded=0;whiteSpace=wrap;html=1;fillColor=#e5dc7b;" vertex="1" parent="1">
          <mxGeometry x="212" y="630" width="10" height="20" as="geometry" />
        </mxCell>
        <mxCell id="HA4-nWGH4tqKeBmrAW9M-440" value="" style="rounded=0;whiteSpace=wrap;html=1;fillColor=#e5dc7b;" vertex="1" parent="1">
          <mxGeometry x="222" y="630" width="10" height="20" as="geometry" />
        </mxCell>
        <mxCell id="HA4-nWGH4tqKeBmrAW9M-441" value="" style="rounded=0;whiteSpace=wrap;html=1;fillColor=#e5dc7b;" vertex="1" parent="1">
          <mxGeometry x="232" y="630" width="10" height="20" as="geometry" />
        </mxCell>
        <mxCell id="HA4-nWGH4tqKeBmrAW9M-442" value="" style="rounded=0;whiteSpace=wrap;html=1;fillColor=#e5dc7b;" vertex="1" parent="1">
          <mxGeometry x="242" y="630" width="10" height="20" as="geometry" />
        </mxCell>
        <mxCell id="HA4-nWGH4tqKeBmrAW9M-443" value="" style="rounded=0;whiteSpace=wrap;html=1;fillColor=#e5dc7b;" vertex="1" parent="1">
          <mxGeometry x="252" y="630" width="10" height="20" as="geometry" />
        </mxCell>
        <mxCell id="HA4-nWGH4tqKeBmrAW9M-444" value="" style="rounded=0;whiteSpace=wrap;html=1;fillColor=#e5dc7b;" vertex="1" parent="1">
          <mxGeometry x="262" y="630" width="10" height="20" as="geometry" />
        </mxCell>
        <mxCell id="HA4-nWGH4tqKeBmrAW9M-445" value="" style="rounded=0;whiteSpace=wrap;html=1;fillColor=#e5dc7b;" vertex="1" parent="1">
          <mxGeometry x="272" y="630" width="10" height="20" as="geometry" />
        </mxCell>
        <mxCell id="HA4-nWGH4tqKeBmrAW9M-446" value="" style="rounded=0;whiteSpace=wrap;html=1;fillColor=#e5dc7b;" vertex="1" parent="1">
          <mxGeometry x="282" y="630" width="10" height="20" as="geometry" />
        </mxCell>
        <mxCell id="HA4-nWGH4tqKeBmrAW9M-447" value="" style="rounded=0;whiteSpace=wrap;html=1;fillColor=#e5dc7b;" vertex="1" parent="1">
          <mxGeometry x="292" y="630" width="10" height="20" as="geometry" />
        </mxCell>
        <mxCell id="HA4-nWGH4tqKeBmrAW9M-448" value="" style="rounded=0;whiteSpace=wrap;html=1;fillColor=#e5dc7b;" vertex="1" parent="1">
          <mxGeometry x="302" y="630" width="10" height="20" as="geometry" />
        </mxCell>
        <mxCell id="HA4-nWGH4tqKeBmrAW9M-449" value="" style="rounded=0;whiteSpace=wrap;html=1;fillColor=#e5dc7b;" vertex="1" parent="1">
          <mxGeometry x="312" y="630" width="10" height="20" as="geometry" />
        </mxCell>
        <mxCell id="HA4-nWGH4tqKeBmrAW9M-450" value="" style="rounded=0;whiteSpace=wrap;html=1;fillColor=#e5dc7b;" vertex="1" parent="1">
          <mxGeometry x="322" y="630" width="10" height="20" as="geometry" />
        </mxCell>
        <mxCell id="HA4-nWGH4tqKeBmrAW9M-451" value="" style="rounded=0;whiteSpace=wrap;html=1;fillColor=#e5dc7b;" vertex="1" parent="1">
          <mxGeometry x="332" y="630" width="10" height="20" as="geometry" />
        </mxCell>
        <mxCell id="HA4-nWGH4tqKeBmrAW9M-452" value="" style="rounded=0;whiteSpace=wrap;html=1;fillColor=#e5dc7b;" vertex="1" parent="1">
          <mxGeometry x="342" y="630" width="10" height="20" as="geometry" />
        </mxCell>
        <mxCell id="HA4-nWGH4tqKeBmrAW9M-453" value="" style="rounded=0;whiteSpace=wrap;html=1;fillColor=#e5dc7b;" vertex="1" parent="1">
          <mxGeometry x="352" y="630" width="10" height="20" as="geometry" />
        </mxCell>
        <mxCell id="HA4-nWGH4tqKeBmrAW9M-454" value="" style="rounded=0;whiteSpace=wrap;html=1;fillColor=#e5dc7b;" vertex="1" parent="1">
          <mxGeometry x="362" y="630" width="10" height="20" as="geometry" />
        </mxCell>
        <mxCell id="HA4-nWGH4tqKeBmrAW9M-455" value="" style="rounded=0;whiteSpace=wrap;html=1;fillColor=#e5dc7b;" vertex="1" parent="1">
          <mxGeometry x="372" y="630" width="10" height="20" as="geometry" />
        </mxCell>
        <mxCell id="HA4-nWGH4tqKeBmrAW9M-456" value="" style="rounded=0;whiteSpace=wrap;html=1;fillColor=#e5dc7b;" vertex="1" parent="1">
          <mxGeometry x="382" y="630" width="10" height="20" as="geometry" />
        </mxCell>
        <mxCell id="HA4-nWGH4tqKeBmrAW9M-457" value="" style="rounded=0;whiteSpace=wrap;html=1;fillColor=#e5dc7b;" vertex="1" parent="1">
          <mxGeometry x="392" y="630" width="10" height="20" as="geometry" />
        </mxCell>
        <mxCell id="HA4-nWGH4tqKeBmrAW9M-458" value="" style="rounded=0;whiteSpace=wrap;html=1;fillColor=#e5dc7b;" vertex="1" parent="1">
          <mxGeometry x="402" y="630" width="10" height="20" as="geometry" />
        </mxCell>
        <mxCell id="HA4-nWGH4tqKeBmrAW9M-459" value="" style="rounded=0;whiteSpace=wrap;html=1;fillColor=#e5dc7b;" vertex="1" parent="1">
          <mxGeometry x="412" y="630" width="10" height="20" as="geometry" />
        </mxCell>
        <mxCell id="HA4-nWGH4tqKeBmrAW9M-460" value="" style="rounded=0;whiteSpace=wrap;html=1;fillColor=#e5dc7b;" vertex="1" parent="1">
          <mxGeometry x="422" y="630" width="10" height="20" as="geometry" />
        </mxCell>
        <mxCell id="HA4-nWGH4tqKeBmrAW9M-461" value="" style="rounded=0;whiteSpace=wrap;html=1;fillColor=#e5dc7b;" vertex="1" parent="1">
          <mxGeometry x="432" y="630" width="10" height="20" as="geometry" />
        </mxCell>
        <mxCell id="HA4-nWGH4tqKeBmrAW9M-462" value="" style="rounded=0;whiteSpace=wrap;html=1;fillColor=#e5dc7b;" vertex="1" parent="1">
          <mxGeometry x="662" y="630" width="10" height="20" as="geometry" />
        </mxCell>
        <mxCell id="HA4-nWGH4tqKeBmrAW9M-463" value="" style="rounded=0;whiteSpace=wrap;html=1;fillColor=#e5dc7b;" vertex="1" parent="1">
          <mxGeometry x="678" y="630" width="10" height="20" as="geometry" />
        </mxCell>
        <mxCell id="HA4-nWGH4tqKeBmrAW9M-464" value="" style="rounded=0;whiteSpace=wrap;html=1;fillColor=#e5dc7b;" vertex="1" parent="1">
          <mxGeometry x="688" y="630" width="10" height="20" as="geometry" />
        </mxCell>
        <mxCell id="HA4-nWGH4tqKeBmrAW9M-465" value="" style="rounded=0;whiteSpace=wrap;html=1;fillColor=#e5dc7b;" vertex="1" parent="1">
          <mxGeometry x="698" y="630" width="10" height="20" as="geometry" />
        </mxCell>
        <mxCell id="HA4-nWGH4tqKeBmrAW9M-466" value="" style="rounded=0;whiteSpace=wrap;html=1;fillColor=#e5dc7b;" vertex="1" parent="1">
          <mxGeometry x="708" y="630" width="10" height="20" as="geometry" />
        </mxCell>
        <mxCell id="HA4-nWGH4tqKeBmrAW9M-467" value="" style="rounded=0;whiteSpace=wrap;html=1;fillColor=#e5dc7b;" vertex="1" parent="1">
          <mxGeometry x="718" y="630" width="10" height="20" as="geometry" />
        </mxCell>
        <mxCell id="HA4-nWGH4tqKeBmrAW9M-468" value="" style="rounded=0;whiteSpace=wrap;html=1;fillColor=#e5dc7b;" vertex="1" parent="1">
          <mxGeometry x="728" y="630" width="10" height="20" as="geometry" />
        </mxCell>
        <mxCell id="HA4-nWGH4tqKeBmrAW9M-469" value="" style="rounded=0;whiteSpace=wrap;html=1;fillColor=#e5dc7b;" vertex="1" parent="1">
          <mxGeometry x="738" y="630" width="10" height="20" as="geometry" />
        </mxCell>
        <mxCell id="HA4-nWGH4tqKeBmrAW9M-470" value="" style="rounded=0;whiteSpace=wrap;html=1;fillColor=#e5dc7b;" vertex="1" parent="1">
          <mxGeometry x="748" y="630" width="10" height="20" as="geometry" />
        </mxCell>
        <mxCell id="HA4-nWGH4tqKeBmrAW9M-471" value="" style="rounded=0;whiteSpace=wrap;html=1;fillColor=#e5dc7b;" vertex="1" parent="1">
          <mxGeometry x="758" y="630" width="10" height="20" as="geometry" />
        </mxCell>
        <mxCell id="HA4-nWGH4tqKeBmrAW9M-472" value="" style="rounded=0;whiteSpace=wrap;html=1;fillColor=#e5dc7b;" vertex="1" parent="1">
          <mxGeometry x="768" y="630" width="10" height="20" as="geometry" />
        </mxCell>
        <mxCell id="HA4-nWGH4tqKeBmrAW9M-473" value="" style="rounded=0;whiteSpace=wrap;html=1;fillColor=#e5dc7b;" vertex="1" parent="1">
          <mxGeometry x="778" y="630" width="10" height="20" as="geometry" />
        </mxCell>
        <mxCell id="HA4-nWGH4tqKeBmrAW9M-474" value="" style="rounded=0;whiteSpace=wrap;html=1;fillColor=#e5dc7b;" vertex="1" parent="1">
          <mxGeometry x="788" y="630" width="10" height="20" as="geometry" />
        </mxCell>
        <mxCell id="HA4-nWGH4tqKeBmrAW9M-475" value="" style="rounded=0;whiteSpace=wrap;html=1;fillColor=#e5dc7b;" vertex="1" parent="1">
          <mxGeometry x="798" y="630" width="10" height="20" as="geometry" />
        </mxCell>
        <mxCell id="HA4-nWGH4tqKeBmrAW9M-476" value="" style="rounded=0;whiteSpace=wrap;html=1;fillColor=#e5dc7b;" vertex="1" parent="1">
          <mxGeometry x="808" y="630" width="10" height="20" as="geometry" />
        </mxCell>
        <mxCell id="HA4-nWGH4tqKeBmrAW9M-477" value="" style="rounded=0;whiteSpace=wrap;html=1;fillColor=#e5dc7b;" vertex="1" parent="1">
          <mxGeometry x="818" y="630" width="10" height="20" as="geometry" />
        </mxCell>
        <mxCell id="HA4-nWGH4tqKeBmrAW9M-478" value="" style="rounded=0;whiteSpace=wrap;html=1;fillColor=#e5dc7b;" vertex="1" parent="1">
          <mxGeometry x="828" y="630" width="10" height="20" as="geometry" />
        </mxCell>
        <mxCell id="HA4-nWGH4tqKeBmrAW9M-479" value="" style="rounded=0;whiteSpace=wrap;html=1;fillColor=#e5dc7b;" vertex="1" parent="1">
          <mxGeometry x="838" y="630" width="10" height="20" as="geometry" />
        </mxCell>
        <mxCell id="HA4-nWGH4tqKeBmrAW9M-480" value="" style="rounded=0;whiteSpace=wrap;html=1;fillColor=#e5dc7b;" vertex="1" parent="1">
          <mxGeometry x="848" y="630" width="10" height="20" as="geometry" />
        </mxCell>
        <mxCell id="HA4-nWGH4tqKeBmrAW9M-481" value="" style="rounded=0;whiteSpace=wrap;html=1;fillColor=#e5dc7b;" vertex="1" parent="1">
          <mxGeometry x="858" y="630" width="10" height="20" as="geometry" />
        </mxCell>
        <mxCell id="HA4-nWGH4tqKeBmrAW9M-482" value="" style="rounded=0;whiteSpace=wrap;html=1;fillColor=#e5dc7b;" vertex="1" parent="1">
          <mxGeometry x="868" y="630" width="10" height="20" as="geometry" />
        </mxCell>
        <mxCell id="HA4-nWGH4tqKeBmrAW9M-483" value="" style="rounded=0;whiteSpace=wrap;html=1;fillColor=#e5dc7b;" vertex="1" parent="1">
          <mxGeometry x="878" y="630" width="10" height="20" as="geometry" />
        </mxCell>
        <mxCell id="HA4-nWGH4tqKeBmrAW9M-484" value="" style="rounded=0;whiteSpace=wrap;html=1;fillColor=#e5dc7b;" vertex="1" parent="1">
          <mxGeometry x="888" y="630" width="10" height="20" as="geometry" />
        </mxCell>
        <mxCell id="HA4-nWGH4tqKeBmrAW9M-485" value="" style="rounded=0;whiteSpace=wrap;html=1;fillColor=#e5dc7b;" vertex="1" parent="1">
          <mxGeometry x="898" y="630" width="10" height="20" as="geometry" />
        </mxCell>
        <mxCell id="HA4-nWGH4tqKeBmrAW9M-486" value="" style="rounded=0;whiteSpace=wrap;html=1;fillColor=#e5dc7b;" vertex="1" parent="1">
          <mxGeometry x="908" y="630" width="10" height="20" as="geometry" />
        </mxCell>
        <mxCell id="HA4-nWGH4tqKeBmrAW9M-487" value="" style="rounded=0;whiteSpace=wrap;html=1;fillColor=#e5dc7b;" vertex="1" parent="1">
          <mxGeometry x="918" y="630" width="10" height="20" as="geometry" />
        </mxCell>
        <mxCell id="HA4-nWGH4tqKeBmrAW9M-488" value="" style="rounded=0;whiteSpace=wrap;html=1;fillColor=#e5dc7b;" vertex="1" parent="1">
          <mxGeometry x="928" y="630" width="10" height="20" as="geometry" />
        </mxCell>
        <mxCell id="HA4-nWGH4tqKeBmrAW9M-489" value="" style="rounded=0;whiteSpace=wrap;html=1;fillColor=#e5dc7b;" vertex="1" parent="1">
          <mxGeometry x="938" y="630" width="10" height="20" as="geometry" />
        </mxCell>
        <mxCell id="HA4-nWGH4tqKeBmrAW9M-490" value="" style="rounded=0;whiteSpace=wrap;html=1;fillColor=#e5dc7b;" vertex="1" parent="1">
          <mxGeometry x="948" y="630" width="10" height="20" as="geometry" />
        </mxCell>
        <mxCell id="HA4-nWGH4tqKeBmrAW9M-491" value="" style="rounded=0;whiteSpace=wrap;html=1;fillColor=#e5dc7b;" vertex="1" parent="1">
          <mxGeometry x="958" y="630" width="10" height="20" as="geometry" />
        </mxCell>
        <mxCell id="HA4-nWGH4tqKeBmrAW9M-492" value="" style="rounded=0;whiteSpace=wrap;html=1;fillColor=#e5dc7b;" vertex="1" parent="1">
          <mxGeometry x="968" y="630" width="10" height="20" as="geometry" />
        </mxCell>
        <mxCell id="HA4-nWGH4tqKeBmrAW9M-493" value="" style="rounded=0;whiteSpace=wrap;html=1;fillColor=#e5dc7b;" vertex="1" parent="1">
          <mxGeometry x="978" y="630" width="10" height="20" as="geometry" />
        </mxCell>
        <mxCell id="HA4-nWGH4tqKeBmrAW9M-494" value="" style="rounded=0;whiteSpace=wrap;html=1;fillColor=#e5dc7b;" vertex="1" parent="1">
          <mxGeometry x="988" y="630" width="10" height="20" as="geometry" />
        </mxCell>
        <mxCell id="HA4-nWGH4tqKeBmrAW9M-495" value="" style="rounded=0;whiteSpace=wrap;html=1;fillColor=#e5dc7b;" vertex="1" parent="1">
          <mxGeometry x="998" y="630" width="10" height="20" as="geometry" />
        </mxCell>
        <mxCell id="HA4-nWGH4tqKeBmrAW9M-496" value="" style="rounded=0;whiteSpace=wrap;html=1;fillColor=#e5dc7b;" vertex="1" parent="1">
          <mxGeometry x="1008" y="630" width="10" height="20" as="geometry" />
        </mxCell>
        <mxCell id="HA4-nWGH4tqKeBmrAW9M-497" value="" style="rounded=0;whiteSpace=wrap;html=1;fillColor=#e5dc7b;" vertex="1" parent="1">
          <mxGeometry x="1018" y="630" width="10" height="20" as="geometry" />
        </mxCell>
        <mxCell id="HA4-nWGH4tqKeBmrAW9M-498" value="" style="rounded=0;whiteSpace=wrap;html=1;fillColor=#e5dc7b;" vertex="1" parent="1">
          <mxGeometry x="1028" y="630" width="10" height="20" as="geometry" />
        </mxCell>
        <mxCell id="HA4-nWGH4tqKeBmrAW9M-499" value="" style="rounded=0;whiteSpace=wrap;html=1;fillColor=#e5dc7b;" vertex="1" parent="1">
          <mxGeometry x="1038" y="630" width="10" height="20" as="geometry" />
        </mxCell>
        <mxCell id="HA4-nWGH4tqKeBmrAW9M-500" value="" style="rounded=0;whiteSpace=wrap;html=1;fillColor=#e5dc7b;" vertex="1" parent="1">
          <mxGeometry x="1048" y="630" width="10" height="20" as="geometry" />
        </mxCell>
        <mxCell id="HA4-nWGH4tqKeBmrAW9M-501" value="" style="rounded=0;whiteSpace=wrap;html=1;fillColor=#e5dc7b;" vertex="1" parent="1">
          <mxGeometry x="672" y="630" width="10" height="20" as="geometry" />
        </mxCell>
        <mxCell id="HA4-nWGH4tqKeBmrAW9M-502" value="" style="rounded=0;whiteSpace=wrap;html=1;fillColor=#e5dc7b;" vertex="1" parent="1">
          <mxGeometry x="682" y="630" width="10" height="20" as="geometry" />
        </mxCell>
        <mxCell id="HA4-nWGH4tqKeBmrAW9M-503" value="" style="rounded=0;whiteSpace=wrap;html=1;fillColor=#e5dc7b;" vertex="1" parent="1">
          <mxGeometry x="692" y="630" width="10" height="20" as="geometry" />
        </mxCell>
        <mxCell id="HA4-nWGH4tqKeBmrAW9M-504" value="" style="rounded=0;whiteSpace=wrap;html=1;fillColor=#e5dc7b;" vertex="1" parent="1">
          <mxGeometry x="442" y="630" width="10" height="20" as="geometry" />
        </mxCell>
        <mxCell id="HA4-nWGH4tqKeBmrAW9M-505" value="" style="rounded=0;whiteSpace=wrap;html=1;fillColor=#e5dc7b;" vertex="1" parent="1">
          <mxGeometry x="-58" y="630" width="10" height="20" as="geometry" />
        </mxCell>
        <mxCell id="HA4-nWGH4tqKeBmrAW9M-506" value="" style="rounded=0;whiteSpace=wrap;html=1;fillColor=#e5dc7b;" vertex="1" parent="1">
          <mxGeometry x="-48" y="630" width="10" height="20" as="geometry" />
        </mxCell>
        <mxCell id="HA4-nWGH4tqKeBmrAW9M-507" value="" style="rounded=0;whiteSpace=wrap;html=1;fillColor=#e5dc7b;" vertex="1" parent="1">
          <mxGeometry x="-38" y="630" width="10" height="20" as="geometry" />
        </mxCell>
        <mxCell id="HA4-nWGH4tqKeBmrAW9M-508" value="" style="rounded=0;whiteSpace=wrap;html=1;fillColor=#e5dc7b;" vertex="1" parent="1">
          <mxGeometry x="-28" y="630" width="10" height="20" as="geometry" />
        </mxCell>
        <mxCell id="HA4-nWGH4tqKeBmrAW9M-509" value="" style="rounded=0;whiteSpace=wrap;html=1;fillColor=#e5dc7b;" vertex="1" parent="1">
          <mxGeometry x="-18" y="630" width="10" height="20" as="geometry" />
        </mxCell>
        <mxCell id="HA4-nWGH4tqKeBmrAW9M-510" value="" style="rounded=0;whiteSpace=wrap;html=1;fillColor=#e5dc7b;" vertex="1" parent="1">
          <mxGeometry x="-8" y="630" width="10" height="20" as="geometry" />
        </mxCell>
        <mxCell id="HA4-nWGH4tqKeBmrAW9M-511" value="" style="rounded=0;whiteSpace=wrap;html=1;fillColor=#e5dc7b;" vertex="1" parent="1">
          <mxGeometry x="2" y="630" width="10" height="20" as="geometry" />
        </mxCell>
        <mxCell id="HA4-nWGH4tqKeBmrAW9M-512" value="" style="rounded=0;whiteSpace=wrap;html=1;fillColor=#e5dc7b;" vertex="1" parent="1">
          <mxGeometry x="12" y="630" width="10" height="20" as="geometry" />
        </mxCell>
        <mxCell id="HA4-nWGH4tqKeBmrAW9M-513" value="" style="rounded=0;whiteSpace=wrap;html=1;fillColor=#e5dc7b;" vertex="1" parent="1">
          <mxGeometry x="22" y="630" width="10" height="20" as="geometry" />
        </mxCell>
        <mxCell id="HA4-nWGH4tqKeBmrAW9M-514" value="" style="rounded=0;whiteSpace=wrap;html=1;fillColor=#e5dc7b;" vertex="1" parent="1">
          <mxGeometry x="32" y="630" width="10" height="20" as="geometry" />
        </mxCell>
        <mxCell id="HA4-nWGH4tqKeBmrAW9M-515" value="" style="rounded=0;whiteSpace=wrap;html=1;fillColor=#e5dc7b;" vertex="1" parent="1">
          <mxGeometry x="42" y="630" width="10" height="20" as="geometry" />
        </mxCell>
        <mxCell id="HA4-nWGH4tqKeBmrAW9M-516" value="" style="rounded=0;whiteSpace=wrap;html=1;fillColor=#e5dc7b;" vertex="1" parent="1">
          <mxGeometry x="52" y="630" width="10" height="20" as="geometry" />
        </mxCell>
        <mxCell id="HA4-nWGH4tqKeBmrAW9M-517" value="" style="rounded=0;whiteSpace=wrap;html=1;fillColor=#e5dc7b;" vertex="1" parent="1">
          <mxGeometry x="1058" y="630" width="10" height="20" as="geometry" />
        </mxCell>
        <mxCell id="HA4-nWGH4tqKeBmrAW9M-518" value="" style="rounded=0;whiteSpace=wrap;html=1;fillColor=#e5dc7b;" vertex="1" parent="1">
          <mxGeometry x="1068" y="630" width="10" height="20" as="geometry" />
        </mxCell>
        <mxCell id="HA4-nWGH4tqKeBmrAW9M-519" value="" style="rounded=0;whiteSpace=wrap;html=1;fillColor=#e5dc7b;" vertex="1" parent="1">
          <mxGeometry x="1078" y="630" width="10" height="20" as="geometry" />
        </mxCell>
        <mxCell id="HA4-nWGH4tqKeBmrAW9M-520" value="" style="rounded=0;whiteSpace=wrap;html=1;fillColor=#e5dc7b;" vertex="1" parent="1">
          <mxGeometry x="1088" y="630" width="10" height="20" as="geometry" />
        </mxCell>
        <mxCell id="HA4-nWGH4tqKeBmrAW9M-521" value="" style="rounded=0;whiteSpace=wrap;html=1;fillColor=#e5dc7b;" vertex="1" parent="1">
          <mxGeometry x="1098" y="630" width="10" height="20" as="geometry" />
        </mxCell>
        <mxCell id="HA4-nWGH4tqKeBmrAW9M-522" value="" style="rounded=0;whiteSpace=wrap;html=1;fillColor=#e5dc7b;" vertex="1" parent="1">
          <mxGeometry x="1108" y="630" width="10" height="20" as="geometry" />
        </mxCell>
        <mxCell id="HA4-nWGH4tqKeBmrAW9M-523" value="" style="rounded=0;whiteSpace=wrap;html=1;fillColor=#e5dc7b;" vertex="1" parent="1">
          <mxGeometry x="1118" y="630" width="10" height="20" as="geometry" />
        </mxCell>
        <mxCell id="HA4-nWGH4tqKeBmrAW9M-524" value="" style="rounded=0;whiteSpace=wrap;html=1;fillColor=#e5dc7b;" vertex="1" parent="1">
          <mxGeometry x="1128" y="630" width="10" height="20" as="geometry" />
        </mxCell>
        <mxCell id="HA4-nWGH4tqKeBmrAW9M-525" value="" style="rounded=0;whiteSpace=wrap;html=1;fillColor=#e5dc7b;" vertex="1" parent="1">
          <mxGeometry x="1138" y="630" width="10" height="20" as="geometry" />
        </mxCell>
        <mxCell id="HA4-nWGH4tqKeBmrAW9M-526" value="" style="rounded=0;whiteSpace=wrap;html=1;fillColor=#e5dc7b;" vertex="1" parent="1">
          <mxGeometry x="1148" y="630" width="10" height="20" as="geometry" />
        </mxCell>
        <mxCell id="HA4-nWGH4tqKeBmrAW9M-527" value="" style="shape=or;whiteSpace=wrap;html=1;direction=south;" vertex="1" parent="1">
          <mxGeometry x="540" y="630" width="20" height="30" as="geometry" />
        </mxCell>
        <mxCell id="HA4-nWGH4tqKeBmrAW9M-528" value="" style="html=1;shadow=0;dashed=0;align=center;verticalAlign=middle;shape=mxgraph.arrows2.bendDoubleArrow;dy=6.29;dx=32.02;arrowHead=51.38;rounded=1;rotation=-45;" vertex="1" parent="1">
          <mxGeometry x="-175.74" y="423.64" width="173.1" height="178.41" as="geometry" />
        </mxCell>
        <mxCell id="HA4-nWGH4tqKeBmrAW9M-529" value="FLIP" style="text;html=1;align=center;verticalAlign=middle;whiteSpace=wrap;rounded=0;fontStyle=1;fontSize=19;" vertex="1" parent="1">
          <mxGeometry x="-160" y="497.84000000000003" width="60" height="30" as="geometry" />
        </mxCell>
        <mxCell id="HA4-nWGH4tqKeBmrAW9M-530" style="edgeStyle=orthogonalEdgeStyle;rounded=0;orthogonalLoop=1;jettySize=auto;html=1;exitX=0.25;exitY=1;exitDx=0;exitDy=0;entryX=1;entryY=0.5;entryDx=0;entryDy=0;strokeWidth=2;strokeColor=#d79b00;endArrow=none;endFill=0;fillColor=#dae8fc;" edge="1" parent="1">
          <mxGeometry relative="1" as="geometry">
            <mxPoint x="450" y="220.95" as="sourcePoint" />
            <mxPoint x="10" y="206.45" as="targetPoint" />
            <Array as="points">
              <mxPoint x="370" y="221" />
              <mxPoint x="370" y="207" />
            </Array>
          </mxGeometry>
        </mxCell>
        <mxCell id="HA4-nWGH4tqKeBmrAW9M-531" style="edgeStyle=orthogonalEdgeStyle;rounded=0;orthogonalLoop=1;jettySize=auto;html=1;exitX=0.75;exitY=1;exitDx=0;exitDy=0;strokeWidth=2;strokeColor=#d79b00;endArrow=none;endFill=0;fillColor=#dae8fc;" edge="1" parent="1">
          <mxGeometry relative="1" as="geometry">
            <mxPoint x="450" y="285" as="sourcePoint" />
            <mxPoint x="10" y="297.5" as="targetPoint" />
            <Array as="points">
              <mxPoint x="370" y="285" />
              <mxPoint x="370" y="297" />
            </Array>
          </mxGeometry>
        </mxCell>
        <mxCell id="HA4-nWGH4tqKeBmrAW9M-542" style="edgeStyle=orthogonalEdgeStyle;rounded=0;orthogonalLoop=1;jettySize=auto;html=1;exitX=0.25;exitY=0;exitDx=0;exitDy=0;strokeWidth=2;strokeColor=#d79b00;endArrow=none;endFill=0;entryX=0;entryY=0.5;entryDx=0;entryDy=0;fillColor=#d5e8d4;" edge="1" parent="1">
          <mxGeometry relative="1" as="geometry">
            <mxPoint x="650.5" y="288" as="sourcePoint" />
            <mxPoint x="1091.5" y="301" as="targetPoint" />
            <Array as="points">
              <mxPoint x="730" y="288" />
              <mxPoint x="730" y="301" />
            </Array>
          </mxGeometry>
        </mxCell>
        <mxCell id="HA4-nWGH4tqKeBmrAW9M-543" style="edgeStyle=orthogonalEdgeStyle;rounded=0;orthogonalLoop=1;jettySize=auto;html=1;exitX=0.25;exitY=0;exitDx=0;exitDy=0;strokeWidth=2;strokeColor=#d79b00;endArrow=none;endFill=0;fillColor=#d5e8d4;" edge="1" parent="1">
          <mxGeometry relative="1" as="geometry">
            <mxPoint x="650.5" y="222" as="sourcePoint" />
            <mxPoint x="1091.5" y="207.5" as="targetPoint" />
            <Array as="points">
              <mxPoint x="730" y="222" />
              <mxPoint x="730" y="208" />
            </Array>
          </mxGeometry>
        </mxCell>
        <mxCell id="HA4-nWGH4tqKeBmrAW9M-554" style="edgeStyle=orthogonalEdgeStyle;rounded=0;orthogonalLoop=1;jettySize=auto;html=1;exitX=0.25;exitY=1;exitDx=0;exitDy=0;entryX=1;entryY=0.5;entryDx=0;entryDy=0;strokeWidth=2;strokeColor=#b85450;endArrow=none;endFill=0;fillColor=#dae8fc;" edge="1" parent="1">
          <mxGeometry relative="1" as="geometry">
            <mxPoint x="447" y="720.25" as="sourcePoint" />
            <mxPoint x="7" y="705.75" as="targetPoint" />
            <Array as="points">
              <mxPoint x="407" y="720.75" />
              <mxPoint x="407" y="705.75" />
            </Array>
          </mxGeometry>
        </mxCell>
        <mxCell id="HA4-nWGH4tqKeBmrAW9M-555" style="edgeStyle=orthogonalEdgeStyle;rounded=0;orthogonalLoop=1;jettySize=auto;html=1;exitX=0.75;exitY=1;exitDx=0;exitDy=0;strokeWidth=2;strokeColor=#b85450;endArrow=none;endFill=0;fillColor=#dae8fc;" edge="1" parent="1">
          <mxGeometry relative="1" as="geometry">
            <mxPoint x="450" y="830.5" as="sourcePoint" />
            <mxPoint x="10" y="843" as="targetPoint" />
            <Array as="points">
              <mxPoint x="410" y="830" />
              <mxPoint x="410" y="843" />
            </Array>
          </mxGeometry>
        </mxCell>
        <mxCell id="HA4-nWGH4tqKeBmrAW9M-556" style="edgeStyle=orthogonalEdgeStyle;rounded=0;orthogonalLoop=1;jettySize=auto;html=1;exitX=0.25;exitY=0;exitDx=0;exitDy=0;strokeWidth=2;strokeColor=#9673a6;endArrow=none;endFill=0;fillColor=#d5e8d4;" edge="1" parent="1">
          <mxGeometry relative="1" as="geometry">
            <mxPoint x="650" y="721.5" as="sourcePoint" />
            <mxPoint x="1091" y="707" as="targetPoint" />
            <Array as="points">
              <mxPoint x="690" y="722" />
              <mxPoint x="690" y="707" />
            </Array>
          </mxGeometry>
        </mxCell>
        <mxCell id="HA4-nWGH4tqKeBmrAW9M-557" value="&lt;font style=&quot;font-size: 14px;&quot; color=&quot;#ababab&quot;&gt;&lt;b&gt;RCD&lt;/b&gt;&lt;/font&gt;" style="rounded=0;whiteSpace=wrap;html=1;strokeColor=#454744;fillColor=#464646;direction=south;" vertex="1" parent="1">
          <mxGeometry x="450" y="710" width="200" height="130" as="geometry" />
        </mxCell>
        <mxCell id="HA4-nWGH4tqKeBmrAW9M-558" style="edgeStyle=orthogonalEdgeStyle;rounded=0;orthogonalLoop=1;jettySize=auto;html=1;exitX=0.25;exitY=0;exitDx=0;exitDy=0;strokeWidth=2;strokeColor=#9673a6;endArrow=none;endFill=0;entryX=0;entryY=0.5;entryDx=0;entryDy=0;fillColor=#d5e8d4;" edge="1" parent="1">
          <mxGeometry relative="1" as="geometry">
            <mxPoint x="650" y="830" as="sourcePoint" />
            <mxPoint x="1091" y="843" as="targetPoint" />
            <Array as="points">
              <mxPoint x="690" y="830" />
              <mxPoint x="690" y="843" />
            </Array>
          </mxGeometry>
        </mxCell>
        <mxCell id="HA4-nWGH4tqKeBmrAW9M-559" value="QBCS1_A" style="text;html=1;align=center;verticalAlign=middle;whiteSpace=wrap;rounded=0;fontColor=#b85450;" vertex="1" parent="1">
          <mxGeometry x="345" y="839" width="60" height="30" as="geometry" />
        </mxCell>
        <mxCell id="HA4-nWGH4tqKeBmrAW9M-560" value="QACS1_A" style="text;html=1;align=center;verticalAlign=middle;whiteSpace=wrap;rounded=0;fontColor=#b85450;" vertex="1" parent="1">
          <mxGeometry x="340" y="681" width="60" height="30" as="geometry" />
        </mxCell>
        <mxCell id="HA4-nWGH4tqKeBmrAW9M-561" value="QBCS1_B" style="text;html=1;align=center;verticalAlign=middle;whiteSpace=wrap;rounded=0;fontColor=#9673a6;" vertex="1" parent="1">
          <mxGeometry x="701" y="840" width="60" height="30" as="geometry" />
        </mxCell>
        <mxCell id="HA4-nWGH4tqKeBmrAW9M-562" value="QACS1_B" style="text;html=1;align=center;verticalAlign=middle;whiteSpace=wrap;rounded=0;fontColor=#9673a6;" vertex="1" parent="1">
          <mxGeometry x="698" y="680" width="60" height="30" as="geometry" />
        </mxCell>
        <mxCell id="HA4-nWGH4tqKeBmrAW9M-563" style="edgeStyle=orthogonalEdgeStyle;rounded=0;orthogonalLoop=1;jettySize=auto;html=1;exitX=0.25;exitY=1;exitDx=0;exitDy=0;entryX=1;entryY=0.5;entryDx=0;entryDy=0;strokeWidth=2;strokeColor=#d79b00;endArrow=none;endFill=0;fillColor=#dae8fc;" edge="1" parent="1">
          <mxGeometry relative="1" as="geometry">
            <mxPoint x="450" y="742.95" as="sourcePoint" />
            <mxPoint x="10" y="728.45" as="targetPoint" />
            <Array as="points">
              <mxPoint x="370" y="743" />
              <mxPoint x="370" y="729" />
            </Array>
          </mxGeometry>
        </mxCell>
        <mxCell id="HA4-nWGH4tqKeBmrAW9M-564" style="edgeStyle=orthogonalEdgeStyle;rounded=0;orthogonalLoop=1;jettySize=auto;html=1;exitX=0.75;exitY=1;exitDx=0;exitDy=0;strokeWidth=2;strokeColor=#d79b00;endArrow=none;endFill=0;fillColor=#dae8fc;" edge="1" parent="1">
          <mxGeometry relative="1" as="geometry">
            <mxPoint x="450" y="808" as="sourcePoint" />
            <mxPoint x="10" y="820.5" as="targetPoint" />
            <Array as="points">
              <mxPoint x="370" y="808" />
              <mxPoint x="370" y="820" />
            </Array>
          </mxGeometry>
        </mxCell>
        <mxCell id="HA4-nWGH4tqKeBmrAW9M-575" style="edgeStyle=orthogonalEdgeStyle;rounded=0;orthogonalLoop=1;jettySize=auto;html=1;exitX=0.25;exitY=0;exitDx=0;exitDy=0;strokeWidth=2;strokeColor=#d79b00;endArrow=none;endFill=0;entryX=0;entryY=0.5;entryDx=0;entryDy=0;fillColor=#d5e8d4;" edge="1" parent="1">
          <mxGeometry relative="1" as="geometry">
            <mxPoint x="650.5" y="808" as="sourcePoint" />
            <mxPoint x="1091.5" y="821" as="targetPoint" />
            <Array as="points">
              <mxPoint x="730" y="808" />
              <mxPoint x="730" y="821" />
            </Array>
          </mxGeometry>
        </mxCell>
        <mxCell id="HA4-nWGH4tqKeBmrAW9M-576" style="edgeStyle=orthogonalEdgeStyle;rounded=0;orthogonalLoop=1;jettySize=auto;html=1;exitX=0.25;exitY=0;exitDx=0;exitDy=0;strokeWidth=2;strokeColor=#d79b00;endArrow=none;endFill=0;fillColor=#d5e8d4;" edge="1" parent="1">
          <mxGeometry relative="1" as="geometry">
            <mxPoint x="650.5" y="742" as="sourcePoint" />
            <mxPoint x="1091.5" y="727.5" as="targetPoint" />
            <Array as="points">
              <mxPoint x="730" y="742" />
              <mxPoint x="730" y="728" />
            </Array>
          </mxGeometry>
        </mxCell>
        <mxCell id="HA4-nWGH4tqKeBmrAW9M-587" value="QBCK_A_t/c" style="text;html=1;align=center;verticalAlign=middle;whiteSpace=wrap;rounded=0;fontColor=#d79b00;" vertex="1" parent="1">
          <mxGeometry x="380" y="196" width="60" height="30" as="geometry" />
        </mxCell>
        <mxCell id="HA4-nWGH4tqKeBmrAW9M-588" value="QACK_A_t/c" style="text;html=1;align=center;verticalAlign=middle;whiteSpace=wrap;rounded=0;fontColor=#d79b00;" vertex="1" parent="1">
          <mxGeometry x="381" y="279" width="60" height="30" as="geometry" />
        </mxCell>
        <mxCell id="HA4-nWGH4tqKeBmrAW9M-589" value="QBCK_B_t/c" style="text;html=1;align=center;verticalAlign=middle;whiteSpace=wrap;rounded=0;fontColor=#d79b00;" vertex="1" parent="1">
          <mxGeometry x="659" y="198" width="60" height="30" as="geometry" />
        </mxCell>
        <mxCell id="HA4-nWGH4tqKeBmrAW9M-590" value="QACK_B_t/c" style="text;html=1;align=center;verticalAlign=middle;whiteSpace=wrap;rounded=0;fontColor=#d79b00;" vertex="1" parent="1">
          <mxGeometry x="659" y="283" width="60" height="30" as="geometry" />
        </mxCell>
        <mxCell id="HA4-nWGH4tqKeBmrAW9M-591" value="QCCK_A_t/c" style="text;html=1;align=center;verticalAlign=middle;whiteSpace=wrap;rounded=0;fontColor=#d79b00;" vertex="1" parent="1">
          <mxGeometry x="380" y="720" width="60" height="30" as="geometry" />
        </mxCell>
        <mxCell id="HA4-nWGH4tqKeBmrAW9M-592" value="QDCK_A_t/c" style="text;html=1;align=center;verticalAlign=middle;whiteSpace=wrap;rounded=0;fontColor=#d79b00;" vertex="1" parent="1">
          <mxGeometry x="381" y="801" width="60" height="30" as="geometry" />
        </mxCell>
        <mxCell id="HA4-nWGH4tqKeBmrAW9M-593" value="QCCK_B_t/c" style="text;html=1;align=center;verticalAlign=middle;whiteSpace=wrap;rounded=0;fontColor=#d79b00;" vertex="1" parent="1">
          <mxGeometry x="662" y="719" width="60" height="30" as="geometry" />
        </mxCell>
        <mxCell id="HA4-nWGH4tqKeBmrAW9M-594" value="QDCK_B_t/c" style="text;html=1;align=center;verticalAlign=middle;whiteSpace=wrap;rounded=0;fontColor=#d79b00;" vertex="1" parent="1">
          <mxGeometry x="659" y="801" width="60" height="30" as="geometry" />
        </mxCell>
        <mxCell id="HA4-nWGH4tqKeBmrAW9M-595" value="" style="endArrow=classic;html=1;rounded=0;strokeWidth=4;fillColor=#ffe6cc;strokeColor=#0aa7f5;" edge="1" parent="1">
          <mxGeometry width="50" height="50" relative="1" as="geometry">
            <mxPoint x="480" y="540" as="sourcePoint" />
            <mxPoint x="510" y="320" as="targetPoint" />
            <Array as="points">
              <mxPoint x="480" y="520" />
              <mxPoint x="510" y="520" />
              <mxPoint x="510" y="430" />
            </Array>
          </mxGeometry>
        </mxCell>
        <mxCell id="HA4-nWGH4tqKeBmrAW9M-596" value="" style="endArrow=classic;html=1;rounded=0;strokeWidth=4;fillColor=#fff2cc;strokeColor=#082fa6;" edge="1" parent="1">
          <mxGeometry width="50" height="50" relative="1" as="geometry">
            <mxPoint x="550" y="540" as="sourcePoint" />
            <mxPoint x="526" y="320" as="targetPoint" />
            <Array as="points">
              <mxPoint x="550" y="520" />
              <mxPoint x="526" y="520" />
              <mxPoint x="526" y="430" />
            </Array>
          </mxGeometry>
        </mxCell>
        <mxCell id="HA4-nWGH4tqKeBmrAW9M-597" value="&lt;span style=&quot;font-size: 14px; font-weight: 700; text-align: center;&quot;&gt;&lt;font&gt;DCA[6:0]_A&lt;/font&gt;&lt;/span&gt;" style="text;whiteSpace=wrap;html=1;fontColor=#0aa7f5;fontSize=12;" vertex="1" parent="1">
          <mxGeometry x="440" y="540" width="80" height="30" as="geometry" />
        </mxCell>
        <mxCell id="HA4-nWGH4tqKeBmrAW9M-598" value="&lt;span style=&quot;font-size: 14px; font-weight: 700; text-align: center;&quot;&gt;DCA[6:0]_B&lt;/span&gt;" style="text;whiteSpace=wrap;html=1;fontColor=#0a2ea6;fontSize=12;fontFamily=Helvetica;" vertex="1" parent="1">
          <mxGeometry x="520" y="540" width="80" height="30" as="geometry" />
        </mxCell>
        <mxCell id="HA4-nWGH4tqKeBmrAW9M-599" style="edgeStyle=orthogonalEdgeStyle;rounded=0;orthogonalLoop=1;jettySize=auto;html=1;exitX=0.25;exitY=1;exitDx=0;exitDy=0;entryX=1;entryY=0.5;entryDx=0;entryDy=0;strokeWidth=2;strokeColor=#0aa7f5;endArrow=none;endFill=0;fillColor=#dae8fc;" edge="1" parent="1">
          <mxGeometry relative="1" as="geometry">
            <mxPoint x="452" y="247.92" as="sourcePoint" />
            <mxPoint x="12" y="233.42" as="targetPoint" />
            <Array as="points">
              <mxPoint x="340" y="248" />
              <mxPoint x="340" y="233" />
            </Array>
          </mxGeometry>
        </mxCell>
        <mxCell id="HA4-nWGH4tqKeBmrAW9M-600" style="edgeStyle=orthogonalEdgeStyle;rounded=0;orthogonalLoop=1;jettySize=auto;html=1;exitX=0.75;exitY=1;exitDx=0;exitDy=0;strokeWidth=2;strokeColor=#0aa7f5;endArrow=none;endFill=0;fillColor=#dae8fc;" edge="1" parent="1">
          <mxGeometry relative="1" as="geometry">
            <mxPoint x="450" y="263.74" as="sourcePoint" />
            <mxPoint x="10" y="276.24" as="targetPoint" />
            <Array as="points">
              <mxPoint x="450" y="260" />
              <mxPoint x="340" y="260" />
              <mxPoint x="340" y="276" />
            </Array>
          </mxGeometry>
        </mxCell>
        <mxCell id="HA4-nWGH4tqKeBmrAW9M-532" value="&lt;font style=&quot;font-size: 14px;&quot; color=&quot;#ababab&quot;&gt;DQ&lt;/font&gt;&lt;div style=&quot;font-size: 14px;&quot;&gt;&lt;font color=&quot;#ababab&quot;&gt;x4&lt;/font&gt;&lt;/div&gt;" style="rounded=0;whiteSpace=wrap;html=1;strokeColor=#454744;fillColor=#464646;" vertex="1" parent="1">
          <mxGeometry x="-50" y="260" width="60" height="80" as="geometry" />
        </mxCell>
        <mxCell id="HA4-nWGH4tqKeBmrAW9M-533" value="&lt;font style=&quot;font-size: 14px;&quot; color=&quot;#ababab&quot;&gt;DQ&lt;/font&gt;&lt;div style=&quot;font-size: 14px;&quot;&gt;&lt;font color=&quot;#ababab&quot;&gt;x4&lt;/font&gt;&lt;/div&gt;" style="rounded=0;whiteSpace=wrap;html=1;strokeColor=#454744;fillColor=#464646;" vertex="1" parent="1">
          <mxGeometry x="30" y="260" width="60" height="80" as="geometry" />
        </mxCell>
        <mxCell id="HA4-nWGH4tqKeBmrAW9M-534" value="&lt;font style=&quot;font-size: 14px;&quot; color=&quot;#ababab&quot;&gt;DQ&lt;/font&gt;&lt;div style=&quot;font-size: 14px;&quot;&gt;&lt;font color=&quot;#ababab&quot;&gt;x4&lt;/font&gt;&lt;/div&gt;" style="rounded=0;whiteSpace=wrap;html=1;strokeColor=#454744;fillColor=#464646;" vertex="1" parent="1">
          <mxGeometry x="110" y="260" width="60" height="80" as="geometry" />
        </mxCell>
        <mxCell id="HA4-nWGH4tqKeBmrAW9M-535" value="&lt;font style=&quot;font-size: 14px;&quot; color=&quot;#ababab&quot;&gt;DQ&lt;/font&gt;&lt;div style=&quot;font-size: 14px;&quot;&gt;&lt;font color=&quot;#ababab&quot;&gt;x4&lt;/font&gt;&lt;/div&gt;" style="rounded=0;whiteSpace=wrap;html=1;strokeColor=#454744;fillColor=#464646;" vertex="1" parent="1">
          <mxGeometry x="190" y="260" width="60" height="80" as="geometry" />
        </mxCell>
        <mxCell id="HA4-nWGH4tqKeBmrAW9M-536" value="&lt;font style=&quot;font-size: 14px;&quot; color=&quot;#ababab&quot;&gt;ECC&lt;/font&gt;&lt;div style=&quot;font-size: 14px;&quot;&gt;&lt;font color=&quot;#ababab&quot;&gt;x4&lt;/font&gt;&lt;/div&gt;" style="rounded=0;whiteSpace=wrap;html=1;strokeColor=#454744;fillColor=#464646;" vertex="1" parent="1">
          <mxGeometry x="270" y="260" width="60" height="80" as="geometry" />
        </mxCell>
        <mxCell id="HA4-nWGH4tqKeBmrAW9M-537" value="&lt;font color=&quot;#ababab&quot; style=&quot;font-size: 14px;&quot;&gt;DQ&lt;/font&gt;&lt;div style=&quot;font-size: 14px;&quot;&gt;&lt;font color=&quot;#ababab&quot; style=&quot;font-size: 14px;&quot;&gt;x4&lt;/font&gt;&lt;/div&gt;" style="rounded=0;whiteSpace=wrap;html=1;strokeColor=#454744;fillColor=#464646;" vertex="1" parent="1">
          <mxGeometry x="-50" y="168" width="60" height="80" as="geometry" />
        </mxCell>
        <mxCell id="HA4-nWGH4tqKeBmrAW9M-538" value="&lt;font style=&quot;font-size: 14px;&quot; color=&quot;#ababab&quot;&gt;DQ&lt;/font&gt;&lt;div style=&quot;font-size: 14px;&quot;&gt;&lt;font color=&quot;#ababab&quot;&gt;x4&lt;/font&gt;&lt;/div&gt;" style="rounded=0;whiteSpace=wrap;html=1;strokeColor=#454744;fillColor=#464646;" vertex="1" parent="1">
          <mxGeometry x="30" y="168" width="60" height="80" as="geometry" />
        </mxCell>
        <mxCell id="HA4-nWGH4tqKeBmrAW9M-539" value="&lt;font style=&quot;font-size: 14px;&quot; color=&quot;#ababab&quot;&gt;DQ&lt;/font&gt;&lt;div style=&quot;font-size: 14px;&quot;&gt;&lt;font color=&quot;#ababab&quot;&gt;x4&lt;/font&gt;&lt;/div&gt;" style="rounded=0;whiteSpace=wrap;html=1;strokeColor=#454744;fillColor=#464646;" vertex="1" parent="1">
          <mxGeometry x="110" y="168" width="60" height="80" as="geometry" />
        </mxCell>
        <mxCell id="HA4-nWGH4tqKeBmrAW9M-540" value="&lt;font style=&quot;font-size: 14px;&quot; color=&quot;#ababab&quot;&gt;DQ&lt;/font&gt;&lt;div style=&quot;font-size: 14px;&quot;&gt;&lt;font color=&quot;#ababab&quot;&gt;x4&lt;/font&gt;&lt;/div&gt;" style="rounded=0;whiteSpace=wrap;html=1;strokeColor=#454744;fillColor=#464646;" vertex="1" parent="1">
          <mxGeometry x="190" y="168" width="60" height="80" as="geometry" />
        </mxCell>
        <mxCell id="HA4-nWGH4tqKeBmrAW9M-541" value="&lt;font style=&quot;font-size: 14px;&quot; color=&quot;#ababab&quot;&gt;ECC&lt;/font&gt;&lt;div style=&quot;font-size: 14px;&quot;&gt;&lt;font color=&quot;#ababab&quot;&gt;x4&lt;/font&gt;&lt;/div&gt;" style="rounded=0;whiteSpace=wrap;html=1;strokeColor=#454744;fillColor=#464646;" vertex="1" parent="1">
          <mxGeometry x="270" y="168" width="60" height="80" as="geometry" />
        </mxCell>
        <mxCell id="HA4-nWGH4tqKeBmrAW9M-601" value="QACA[13:0]_A" style="text;html=1;align=center;verticalAlign=middle;whiteSpace=wrap;rounded=0;fontColor=#0aa7f5;" vertex="1" parent="1">
          <mxGeometry x="352" y="255" width="98" height="30" as="geometry" />
        </mxCell>
        <mxCell id="HA4-nWGH4tqKeBmrAW9M-604" value="QBCA[13:0]_A" style="text;html=1;align=center;verticalAlign=middle;whiteSpace=wrap;rounded=0;fontColor=#0aa7f5;" vertex="1" parent="1">
          <mxGeometry x="350" y="223" width="102" height="30" as="geometry" />
        </mxCell>
        <mxCell id="HA4-nWGH4tqKeBmrAW9M-605" style="edgeStyle=orthogonalEdgeStyle;rounded=0;orthogonalLoop=1;jettySize=auto;html=1;exitX=0.25;exitY=1;exitDx=0;exitDy=0;entryX=1;entryY=0.5;entryDx=0;entryDy=0;strokeWidth=2;strokeColor=#0aa7f5;endArrow=none;endFill=0;fillColor=#dae8fc;" edge="1" parent="1">
          <mxGeometry relative="1" as="geometry">
            <mxPoint x="450" y="768.92" as="sourcePoint" />
            <mxPoint x="10" y="754.42" as="targetPoint" />
            <Array as="points">
              <mxPoint x="338" y="769" />
              <mxPoint x="338" y="754" />
            </Array>
          </mxGeometry>
        </mxCell>
        <mxCell id="HA4-nWGH4tqKeBmrAW9M-606" style="edgeStyle=orthogonalEdgeStyle;rounded=0;orthogonalLoop=1;jettySize=auto;html=1;exitX=0.75;exitY=1;exitDx=0;exitDy=0;strokeWidth=2;strokeColor=#0aa7f5;endArrow=none;endFill=0;fillColor=#dae8fc;" edge="1" parent="1">
          <mxGeometry relative="1" as="geometry">
            <mxPoint x="448" y="784.74" as="sourcePoint" />
            <mxPoint x="8" y="797.24" as="targetPoint" />
            <Array as="points">
              <mxPoint x="448" y="781" />
              <mxPoint x="338" y="781" />
              <mxPoint x="338" y="797" />
            </Array>
          </mxGeometry>
        </mxCell>
        <mxCell id="HA4-nWGH4tqKeBmrAW9M-607" value="QBCA[13:0]_A" style="text;html=1;align=center;verticalAlign=middle;whiteSpace=wrap;rounded=0;fontColor=#0aa7f5;" vertex="1" parent="1">
          <mxGeometry x="350" y="776" width="98" height="30" as="geometry" />
        </mxCell>
        <mxCell id="HA4-nWGH4tqKeBmrAW9M-608" value="QACA[13:0]_A" style="text;html=1;align=center;verticalAlign=middle;whiteSpace=wrap;rounded=0;fontColor=#0aa7f5;" vertex="1" parent="1">
          <mxGeometry x="348" y="744" width="102" height="30" as="geometry" />
        </mxCell>
        <mxCell id="HA4-nWGH4tqKeBmrAW9M-565" value="&lt;font style=&quot;font-size: 14px;&quot; color=&quot;#ababab&quot;&gt;DQ&lt;/font&gt;&lt;div style=&quot;font-size: 14px;&quot;&gt;&lt;font color=&quot;#ababab&quot;&gt;x4&lt;/font&gt;&lt;/div&gt;" style="rounded=0;whiteSpace=wrap;html=1;strokeColor=#454744;fillColor=#464646;" vertex="1" parent="1">
          <mxGeometry x="-50" y="780" width="60" height="80" as="geometry" />
        </mxCell>
        <mxCell id="HA4-nWGH4tqKeBmrAW9M-566" value="&lt;font style=&quot;font-size: 14px;&quot; color=&quot;#ababab&quot;&gt;DQ&lt;/font&gt;&lt;div style=&quot;font-size: 14px;&quot;&gt;&lt;font color=&quot;#ababab&quot;&gt;x4&lt;/font&gt;&lt;/div&gt;" style="rounded=0;whiteSpace=wrap;html=1;strokeColor=#454744;fillColor=#464646;" vertex="1" parent="1">
          <mxGeometry x="30" y="780" width="60" height="80" as="geometry" />
        </mxCell>
        <mxCell id="HA4-nWGH4tqKeBmrAW9M-567" value="&lt;font style=&quot;font-size: 14px;&quot; color=&quot;#ababab&quot;&gt;DQ&lt;/font&gt;&lt;div style=&quot;font-size: 14px;&quot;&gt;&lt;font color=&quot;#ababab&quot;&gt;x4&lt;/font&gt;&lt;/div&gt;" style="rounded=0;whiteSpace=wrap;html=1;strokeColor=#454744;fillColor=#464646;" vertex="1" parent="1">
          <mxGeometry x="110" y="780" width="60" height="80" as="geometry" />
        </mxCell>
        <mxCell id="HA4-nWGH4tqKeBmrAW9M-568" value="&lt;font style=&quot;font-size: 14px;&quot; color=&quot;#ababab&quot;&gt;DQ&lt;/font&gt;&lt;div style=&quot;font-size: 14px;&quot;&gt;&lt;font color=&quot;#ababab&quot;&gt;x4&lt;/font&gt;&lt;/div&gt;" style="rounded=0;whiteSpace=wrap;html=1;strokeColor=#454744;fillColor=#464646;" vertex="1" parent="1">
          <mxGeometry x="190" y="780" width="60" height="80" as="geometry" />
        </mxCell>
        <mxCell id="HA4-nWGH4tqKeBmrAW9M-569" value="&lt;font style=&quot;font-size: 14px;&quot; color=&quot;#ababab&quot;&gt;ECC&lt;/font&gt;&lt;div style=&quot;font-size: 14px;&quot;&gt;&lt;font color=&quot;#ababab&quot;&gt;x4&lt;/font&gt;&lt;/div&gt;" style="rounded=0;whiteSpace=wrap;html=1;strokeColor=#454744;fillColor=#464646;" vertex="1" parent="1">
          <mxGeometry x="270" y="780" width="60" height="80" as="geometry" />
        </mxCell>
        <mxCell id="HA4-nWGH4tqKeBmrAW9M-570" value="&lt;font color=&quot;#ababab&quot; style=&quot;font-size: 14px;&quot;&gt;DQ&lt;/font&gt;&lt;div style=&quot;font-size: 14px;&quot;&gt;&lt;font color=&quot;#ababab&quot; style=&quot;font-size: 14px;&quot;&gt;x4&lt;/font&gt;&lt;/div&gt;" style="rounded=0;whiteSpace=wrap;html=1;strokeColor=#454744;fillColor=#464646;" vertex="1" parent="1">
          <mxGeometry x="-50" y="688" width="60" height="80" as="geometry" />
        </mxCell>
        <mxCell id="HA4-nWGH4tqKeBmrAW9M-571" value="&lt;font style=&quot;font-size: 14px;&quot; color=&quot;#ababab&quot;&gt;DQ&lt;/font&gt;&lt;div style=&quot;font-size: 14px;&quot;&gt;&lt;font color=&quot;#ababab&quot;&gt;x4&lt;/font&gt;&lt;/div&gt;" style="rounded=0;whiteSpace=wrap;html=1;strokeColor=#454744;fillColor=#464646;" vertex="1" parent="1">
          <mxGeometry x="30" y="688" width="60" height="80" as="geometry" />
        </mxCell>
        <mxCell id="HA4-nWGH4tqKeBmrAW9M-572" value="&lt;font style=&quot;font-size: 14px;&quot; color=&quot;#ababab&quot;&gt;DQ&lt;/font&gt;&lt;div style=&quot;font-size: 14px;&quot;&gt;&lt;font color=&quot;#ababab&quot;&gt;x4&lt;/font&gt;&lt;/div&gt;" style="rounded=0;whiteSpace=wrap;html=1;strokeColor=#454744;fillColor=#464646;" vertex="1" parent="1">
          <mxGeometry x="110" y="688" width="60" height="80" as="geometry" />
        </mxCell>
        <mxCell id="HA4-nWGH4tqKeBmrAW9M-573" value="&lt;font style=&quot;font-size: 14px;&quot; color=&quot;#ababab&quot;&gt;DQ&lt;/font&gt;&lt;div style=&quot;font-size: 14px;&quot;&gt;&lt;font color=&quot;#ababab&quot;&gt;x4&lt;/font&gt;&lt;/div&gt;" style="rounded=0;whiteSpace=wrap;html=1;strokeColor=#454744;fillColor=#464646;" vertex="1" parent="1">
          <mxGeometry x="190" y="688" width="60" height="80" as="geometry" />
        </mxCell>
        <mxCell id="HA4-nWGH4tqKeBmrAW9M-574" value="&lt;font style=&quot;font-size: 14px;&quot; color=&quot;#ababab&quot;&gt;ECC&lt;/font&gt;&lt;div style=&quot;font-size: 14px;&quot;&gt;&lt;font color=&quot;#ababab&quot;&gt;x4&lt;/font&gt;&lt;/div&gt;" style="rounded=0;whiteSpace=wrap;html=1;strokeColor=#454744;fillColor=#464646;" vertex="1" parent="1">
          <mxGeometry x="270" y="688" width="60" height="80" as="geometry" />
        </mxCell>
        <mxCell id="HA4-nWGH4tqKeBmrAW9M-609" style="edgeStyle=orthogonalEdgeStyle;rounded=0;orthogonalLoop=1;jettySize=auto;html=1;exitX=0.25;exitY=0;exitDx=0;exitDy=0;strokeWidth=2;strokeColor=#0a2ea6;endArrow=none;endFill=0;fillColor=#d5e8d4;fontColor=#0a2ea6;" edge="1" parent="1">
          <mxGeometry relative="1" as="geometry">
            <mxPoint x="650" y="247" as="sourcePoint" />
            <mxPoint x="1091" y="232.5" as="targetPoint" />
            <Array as="points">
              <mxPoint x="750" y="247" />
              <mxPoint x="750" y="232" />
            </Array>
          </mxGeometry>
        </mxCell>
        <mxCell id="HA4-nWGH4tqKeBmrAW9M-610" value="QBCA[13:0]_B" style="text;html=1;align=center;verticalAlign=middle;whiteSpace=wrap;rounded=0;fontColor=#0a2ea6;" vertex="1" parent="1">
          <mxGeometry x="658.5" y="223" width="81.5" height="30" as="geometry" />
        </mxCell>
        <mxCell id="HA4-nWGH4tqKeBmrAW9M-611" style="edgeStyle=orthogonalEdgeStyle;rounded=0;orthogonalLoop=1;jettySize=auto;html=1;exitX=0.25;exitY=0;exitDx=0;exitDy=0;strokeWidth=2;strokeColor=#0a2ea6;endArrow=none;endFill=0;entryX=0;entryY=0.5;entryDx=0;entryDy=0;fillColor=#d5e8d4;fontColor=#0a2ea6;" edge="1" parent="1">
          <mxGeometry relative="1" as="geometry">
            <mxPoint x="650" y="265" as="sourcePoint" />
            <mxPoint x="1091" y="278" as="targetPoint" />
            <Array as="points">
              <mxPoint x="650" y="260" />
              <mxPoint x="750" y="260" />
              <mxPoint x="750" y="278" />
            </Array>
          </mxGeometry>
        </mxCell>
        <mxCell id="HA4-nWGH4tqKeBmrAW9M-612" value="QACA[13:0]_B" style="text;html=1;align=center;verticalAlign=middle;whiteSpace=wrap;rounded=0;fontColor=#0a2ea6;" vertex="1" parent="1">
          <mxGeometry x="660" y="255" width="80" height="30" as="geometry" />
        </mxCell>
        <mxCell id="HA4-nWGH4tqKeBmrAW9M-613" style="edgeStyle=orthogonalEdgeStyle;rounded=0;orthogonalLoop=1;jettySize=auto;html=1;exitX=0.25;exitY=0;exitDx=0;exitDy=0;strokeWidth=2;strokeColor=#0a2ea6;endArrow=none;endFill=0;fillColor=#d5e8d4;fontColor=#0a2ea6;" edge="1" parent="1">
          <mxGeometry relative="1" as="geometry">
            <mxPoint x="650.5" y="768" as="sourcePoint" />
            <mxPoint x="1091.5" y="753.5" as="targetPoint" />
            <Array as="points">
              <mxPoint x="750.5" y="768" />
              <mxPoint x="750.5" y="753" />
            </Array>
          </mxGeometry>
        </mxCell>
        <mxCell id="HA4-nWGH4tqKeBmrAW9M-614" value="QACA[13:0]_B" style="text;html=1;align=center;verticalAlign=middle;whiteSpace=wrap;rounded=0;fontColor=#0a2ea6;" vertex="1" parent="1">
          <mxGeometry x="659" y="744" width="81.5" height="30" as="geometry" />
        </mxCell>
        <mxCell id="HA4-nWGH4tqKeBmrAW9M-615" style="edgeStyle=orthogonalEdgeStyle;rounded=0;orthogonalLoop=1;jettySize=auto;html=1;exitX=0.25;exitY=0;exitDx=0;exitDy=0;strokeWidth=2;strokeColor=#0a2ea6;endArrow=none;endFill=0;entryX=0;entryY=0.5;entryDx=0;entryDy=0;fillColor=#d5e8d4;fontColor=#0a2ea6;" edge="1" parent="1">
          <mxGeometry relative="1" as="geometry">
            <mxPoint x="650.5" y="786" as="sourcePoint" />
            <mxPoint x="1091.5" y="799" as="targetPoint" />
            <Array as="points">
              <mxPoint x="650.5" y="781" />
              <mxPoint x="750.5" y="781" />
              <mxPoint x="750.5" y="799" />
            </Array>
          </mxGeometry>
        </mxCell>
        <mxCell id="HA4-nWGH4tqKeBmrAW9M-616" value="QBCA[13:0]_B" style="text;html=1;align=center;verticalAlign=middle;whiteSpace=wrap;rounded=0;fontColor=#0a2ea6;" vertex="1" parent="1">
          <mxGeometry x="660.5" y="776" width="80" height="30" as="geometry" />
        </mxCell>
        <mxCell id="HA4-nWGH4tqKeBmrAW9M-544" value="&lt;font style=&quot;font-size: 14px;&quot; color=&quot;#ababab&quot;&gt;ECC&lt;/font&gt;&lt;div style=&quot;font-size: 14px;&quot;&gt;&lt;font color=&quot;#ababab&quot;&gt;x4&lt;/font&gt;&lt;/div&gt;" style="rounded=0;whiteSpace=wrap;html=1;strokeColor=#454744;fillColor=#464646;" vertex="1" parent="1">
          <mxGeometry x="771" y="168" width="60" height="80" as="geometry" />
        </mxCell>
        <mxCell id="HA4-nWGH4tqKeBmrAW9M-545" value="&lt;font style=&quot;font-size: 14px;&quot; color=&quot;#ababab&quot;&gt;DQ&lt;/font&gt;&lt;div style=&quot;font-size: 14px;&quot;&gt;&lt;font color=&quot;#ababab&quot;&gt;x4&lt;/font&gt;&lt;/div&gt;" style="rounded=0;whiteSpace=wrap;html=1;strokeColor=#454744;fillColor=#464646;" vertex="1" parent="1">
          <mxGeometry x="851" y="168" width="60" height="80" as="geometry" />
        </mxCell>
        <mxCell id="HA4-nWGH4tqKeBmrAW9M-546" value="&lt;font style=&quot;font-size: 14px;&quot; color=&quot;#ababab&quot;&gt;DQ&lt;/font&gt;&lt;div style=&quot;font-size: 14px;&quot;&gt;&lt;font color=&quot;#ababab&quot;&gt;x4&lt;/font&gt;&lt;/div&gt;" style="rounded=0;whiteSpace=wrap;html=1;strokeColor=#454744;fillColor=#464646;" vertex="1" parent="1">
          <mxGeometry x="931" y="168" width="60" height="80" as="geometry" />
        </mxCell>
        <mxCell id="HA4-nWGH4tqKeBmrAW9M-547" value="&lt;font style=&quot;font-size: 14px;&quot; color=&quot;#ababab&quot;&gt;DQ&lt;/font&gt;&lt;div style=&quot;font-size: 14px;&quot;&gt;&lt;font color=&quot;#ababab&quot;&gt;x4&lt;/font&gt;&lt;/div&gt;" style="rounded=0;whiteSpace=wrap;html=1;strokeColor=#454744;fillColor=#464646;" vertex="1" parent="1">
          <mxGeometry x="1011" y="168" width="60" height="80" as="geometry" />
        </mxCell>
        <mxCell id="HA4-nWGH4tqKeBmrAW9M-548" value="&lt;font style=&quot;font-size: 14px;&quot; color=&quot;#ababab&quot;&gt;DQ&lt;/font&gt;&lt;div style=&quot;font-size: 14px;&quot;&gt;&lt;font color=&quot;#ababab&quot;&gt;x4&lt;/font&gt;&lt;/div&gt;" style="rounded=0;whiteSpace=wrap;html=1;strokeColor=#454744;fillColor=#464646;" vertex="1" parent="1">
          <mxGeometry x="1091" y="168" width="60" height="80" as="geometry" />
        </mxCell>
        <mxCell id="HA4-nWGH4tqKeBmrAW9M-549" value="&lt;font style=&quot;font-size: 14px;&quot; color=&quot;#ababab&quot;&gt;ECC&lt;/font&gt;&lt;div style=&quot;font-size: 14px;&quot;&gt;&lt;font color=&quot;#ababab&quot;&gt;x4&lt;/font&gt;&lt;/div&gt;" style="rounded=0;whiteSpace=wrap;html=1;strokeColor=#454744;fillColor=#464646;" vertex="1" parent="1">
          <mxGeometry x="771" y="260" width="60" height="80" as="geometry" />
        </mxCell>
        <mxCell id="HA4-nWGH4tqKeBmrAW9M-550" value="&lt;font style=&quot;font-size: 14px;&quot; color=&quot;#ababab&quot;&gt;DQ&lt;/font&gt;&lt;div style=&quot;font-size: 14px;&quot;&gt;&lt;font color=&quot;#ababab&quot;&gt;x4&lt;/font&gt;&lt;/div&gt;" style="rounded=0;whiteSpace=wrap;html=1;strokeColor=#454744;fillColor=#464646;" vertex="1" parent="1">
          <mxGeometry x="851" y="260" width="60" height="80" as="geometry" />
        </mxCell>
        <mxCell id="HA4-nWGH4tqKeBmrAW9M-551" value="&lt;font style=&quot;font-size: 14px;&quot; color=&quot;#ababab&quot;&gt;DQ&lt;/font&gt;&lt;div style=&quot;font-size: 14px;&quot;&gt;&lt;font color=&quot;#ababab&quot;&gt;x4&lt;/font&gt;&lt;/div&gt;" style="rounded=0;whiteSpace=wrap;html=1;strokeColor=#454744;fillColor=#464646;" vertex="1" parent="1">
          <mxGeometry x="931" y="260" width="60" height="80" as="geometry" />
        </mxCell>
        <mxCell id="HA4-nWGH4tqKeBmrAW9M-552" value="&lt;font style=&quot;font-size: 14px;&quot; color=&quot;#ababab&quot;&gt;DQ&lt;/font&gt;&lt;div style=&quot;font-size: 14px;&quot;&gt;&lt;font color=&quot;#ababab&quot;&gt;x4&lt;/font&gt;&lt;/div&gt;" style="rounded=0;whiteSpace=wrap;html=1;strokeColor=#454744;fillColor=#464646;" vertex="1" parent="1">
          <mxGeometry x="1011" y="260" width="60" height="80" as="geometry" />
        </mxCell>
        <mxCell id="HA4-nWGH4tqKeBmrAW9M-553" value="&lt;font style=&quot;font-size: 14px;&quot; color=&quot;#ababab&quot;&gt;DQ&lt;/font&gt;&lt;div style=&quot;font-size: 14px;&quot;&gt;&lt;font color=&quot;#ababab&quot;&gt;x4&lt;/font&gt;&lt;/div&gt;" style="rounded=0;whiteSpace=wrap;html=1;strokeColor=#454744;fillColor=#464646;" vertex="1" parent="1">
          <mxGeometry x="1091" y="260" width="60" height="80" as="geometry" />
        </mxCell>
        <mxCell id="HA4-nWGH4tqKeBmrAW9M-577" value="&lt;font style=&quot;font-size: 14px;&quot; color=&quot;#ababab&quot;&gt;ECC&lt;/font&gt;&lt;div style=&quot;font-size: 14px;&quot;&gt;&lt;font color=&quot;#ababab&quot;&gt;x4&lt;/font&gt;&lt;/div&gt;" style="rounded=0;whiteSpace=wrap;html=1;strokeColor=#454744;fillColor=#464646;" vertex="1" parent="1">
          <mxGeometry x="771" y="688" width="60" height="80" as="geometry" />
        </mxCell>
        <mxCell id="HA4-nWGH4tqKeBmrAW9M-578" value="&lt;font style=&quot;font-size: 14px;&quot; color=&quot;#ababab&quot;&gt;DQ&lt;/font&gt;&lt;div style=&quot;font-size: 14px;&quot;&gt;&lt;font color=&quot;#ababab&quot;&gt;x4&lt;/font&gt;&lt;/div&gt;" style="rounded=0;whiteSpace=wrap;html=1;strokeColor=#454744;fillColor=#464646;" vertex="1" parent="1">
          <mxGeometry x="851" y="688" width="60" height="80" as="geometry" />
        </mxCell>
        <mxCell id="HA4-nWGH4tqKeBmrAW9M-579" value="&lt;font style=&quot;font-size: 14px;&quot; color=&quot;#ababab&quot;&gt;DQ&lt;/font&gt;&lt;div style=&quot;font-size: 14px;&quot;&gt;&lt;font color=&quot;#ababab&quot;&gt;x4&lt;/font&gt;&lt;/div&gt;" style="rounded=0;whiteSpace=wrap;html=1;strokeColor=#454744;fillColor=#464646;" vertex="1" parent="1">
          <mxGeometry x="931" y="688" width="60" height="80" as="geometry" />
        </mxCell>
        <mxCell id="HA4-nWGH4tqKeBmrAW9M-580" value="&lt;font style=&quot;font-size: 14px;&quot; color=&quot;#ababab&quot;&gt;DQ&lt;/font&gt;&lt;div style=&quot;font-size: 14px;&quot;&gt;&lt;font color=&quot;#ababab&quot;&gt;x4&lt;/font&gt;&lt;/div&gt;" style="rounded=0;whiteSpace=wrap;html=1;strokeColor=#454744;fillColor=#464646;" vertex="1" parent="1">
          <mxGeometry x="1011" y="688" width="60" height="80" as="geometry" />
        </mxCell>
        <mxCell id="HA4-nWGH4tqKeBmrAW9M-581" value="&lt;font style=&quot;font-size: 14px;&quot; color=&quot;#ababab&quot;&gt;DQ&lt;/font&gt;&lt;div style=&quot;font-size: 14px;&quot;&gt;&lt;font color=&quot;#ababab&quot;&gt;x4&lt;/font&gt;&lt;/div&gt;" style="rounded=0;whiteSpace=wrap;html=1;strokeColor=#454744;fillColor=#464646;" vertex="1" parent="1">
          <mxGeometry x="1091" y="688" width="60" height="80" as="geometry" />
        </mxCell>
        <mxCell id="HA4-nWGH4tqKeBmrAW9M-582" value="&lt;font style=&quot;font-size: 14px;&quot; color=&quot;#ababab&quot;&gt;ECC&lt;/font&gt;&lt;div style=&quot;font-size: 14px;&quot;&gt;&lt;font color=&quot;#ababab&quot;&gt;x4&lt;/font&gt;&lt;/div&gt;" style="rounded=0;whiteSpace=wrap;html=1;strokeColor=#454744;fillColor=#464646;" vertex="1" parent="1">
          <mxGeometry x="771" y="780" width="60" height="80" as="geometry" />
        </mxCell>
        <mxCell id="HA4-nWGH4tqKeBmrAW9M-583" value="&lt;font style=&quot;font-size: 14px;&quot; color=&quot;#ababab&quot;&gt;DQ&lt;/font&gt;&lt;div style=&quot;font-size: 14px;&quot;&gt;&lt;font color=&quot;#ababab&quot;&gt;x4&lt;/font&gt;&lt;/div&gt;" style="rounded=0;whiteSpace=wrap;html=1;strokeColor=#454744;fillColor=#464646;" vertex="1" parent="1">
          <mxGeometry x="851" y="780" width="60" height="80" as="geometry" />
        </mxCell>
        <mxCell id="HA4-nWGH4tqKeBmrAW9M-584" value="&lt;font style=&quot;font-size: 14px;&quot; color=&quot;#ababab&quot;&gt;DQ&lt;/font&gt;&lt;div style=&quot;font-size: 14px;&quot;&gt;&lt;font color=&quot;#ababab&quot;&gt;x4&lt;/font&gt;&lt;/div&gt;" style="rounded=0;whiteSpace=wrap;html=1;strokeColor=#454744;fillColor=#464646;" vertex="1" parent="1">
          <mxGeometry x="931" y="780" width="60" height="80" as="geometry" />
        </mxCell>
        <mxCell id="HA4-nWGH4tqKeBmrAW9M-585" value="&lt;font style=&quot;font-size: 14px;&quot; color=&quot;#ababab&quot;&gt;DQ&lt;/font&gt;&lt;div style=&quot;font-size: 14px;&quot;&gt;&lt;font color=&quot;#ababab&quot;&gt;x4&lt;/font&gt;&lt;/div&gt;" style="rounded=0;whiteSpace=wrap;html=1;strokeColor=#454744;fillColor=#464646;" vertex="1" parent="1">
          <mxGeometry x="1011" y="780" width="60" height="80" as="geometry" />
        </mxCell>
        <mxCell id="HA4-nWGH4tqKeBmrAW9M-586" value="&lt;font style=&quot;font-size: 14px;&quot; color=&quot;#ababab&quot;&gt;DQ&lt;/font&gt;&lt;div style=&quot;font-size: 14px;&quot;&gt;&lt;font color=&quot;#ababab&quot;&gt;x4&lt;/font&gt;&lt;/div&gt;" style="rounded=0;whiteSpace=wrap;html=1;strokeColor=#454744;fillColor=#464646;" vertex="1" parent="1">
          <mxGeometry x="1091" y="780" width="60" height="80" as="geometry" />
        </mxCell>
      </root>
    </mxGraphModel>
  </diagram>
</mxfile>
